<?xml version="1.0" encoding="utf-8"?>
<!-- Generator: Adobe Illustrator 27.7.0, SVG Export Plug-In . SVG Version: 6.00 Build 0)  -->
<svg version="1.1" id="Capa_1" xmlns="http://www.w3.org/2000/svg" xmlns:xlink="http://www.w3.org/1999/xlink" x="0px" y="0px"
	 viewBox="0 0 684 237" style="enable-background:new 0 0 684 237;" xml:space="preserve">
<style type="text/css">
	.st0{fill:#003A70;}
</style>
<g>
	<g>
		<path class="st0" d="M340.1,45.8c-2.6,0-4.7,0.9-6.2,2.8c-1.5,1.9-2.3,4.5-2.3,7.8c0,3.4,0.7,6.1,2.2,7.8c1.5,1.8,3.6,2.7,6.3,2.7
			c1.2,0,2.3-0.1,3.5-0.4c1.1-0.2,2.3-0.5,3.5-0.9v3.9c-2.2,0.8-4.7,1.2-7.5,1.2c-4.1,0-7.3-1.2-9.5-3.7c-2.2-2.5-3.3-6.1-3.3-10.7
			c0-2.9,0.5-5.5,1.6-7.7c1.1-2.2,2.6-3.9,4.6-5c2-1.2,4.4-1.8,7.1-1.8c2.9,0,5.5,0.6,8,1.8l-1.7,3.8c-1-0.4-2-0.8-3-1.2
			C342.4,45.9,341.3,45.8,340.1,45.8z"/>
		<path class="st0" d="M371.5,59.7c0,3.5-0.9,6.2-2.7,8.1c-1.8,1.9-4.3,2.9-7.4,2.9c-2,0-3.7-0.4-5.3-1.3c-1.5-0.9-2.7-2.2-3.5-3.9
			c-0.8-1.7-1.2-3.6-1.2-5.8c0-3.4,0.9-6.1,2.7-8.1c1.8-1.9,4.3-2.9,7.5-2.9c3.1,0,5.5,1,7.3,3C370.6,53.6,371.5,56.3,371.5,59.7z
			 M356,59.7c0,4.9,1.8,7.4,5.4,7.4c3.6,0,5.4-2.5,5.4-7.4c0-4.9-1.8-7.3-5.4-7.3c-1.9,0-3.3,0.6-4.1,1.9
			C356.4,55.5,356,57.3,356,59.7z"/>
		<path class="st0" d="M395.4,70.3h-4.5V57.3c0-1.6-0.3-2.9-1-3.7c-0.7-0.8-1.7-1.2-3.1-1.2c-1.9,0-3.3,0.6-4.2,1.7
			c-0.9,1.1-1.3,3-1.3,5.7v10.6h-4.5V49.1h3.5l0.6,2.8h0.2c0.6-1,1.6-1.8,2.7-2.3c1.2-0.6,2.5-0.8,3.9-0.8c5.1,0,7.7,2.6,7.7,7.8
			V70.3z"/>
		<path class="st0" d="M416,64.3c0,2.1-0.8,3.7-2.3,4.8c-1.5,1.1-3.7,1.7-6.5,1.7c-2.8,0-5.1-0.4-6.8-1.3v-3.9
			c2.5,1.2,4.8,1.7,7,1.7c2.8,0,4.2-0.8,4.2-2.5c0-0.5-0.2-1-0.5-1.3c-0.3-0.4-0.8-0.7-1.5-1.1c-0.7-0.4-1.7-0.8-2.9-1.3
			c-2.5-1-4.1-1.9-5-2.8c-0.9-0.9-1.3-2.2-1.3-3.7c0-1.8,0.7-3.2,2.2-4.2c1.5-1,3.5-1.5,6-1.5c2.5,0,4.9,0.5,7.1,1.5l-1.5,3.4
			c-2.3-1-4.2-1.4-5.8-1.4c-2.4,0-3.6,0.7-3.6,2c0,0.7,0.3,1.2,0.9,1.7c0.6,0.5,2,1.1,4.1,1.9c1.8,0.7,3,1.3,3.8,1.9
			c0.8,0.6,1.4,1.2,1.8,2C415.8,62.4,416,63.3,416,64.3z"/>
		<path class="st0" d="M435.9,70.3l-0.6-2.8H435c-0.6,1-1.5,1.8-2.7,2.3c-1.2,0.6-2.5,0.8-4,0.8c-2.6,0-4.5-0.6-5.8-1.9
			c-1.3-1.3-1.9-3.2-1.9-5.8V49.1h4.6v13.1c0,1.6,0.3,2.8,1,3.7c0.7,0.8,1.7,1.2,3.1,1.2c1.9,0,3.3-0.6,4.2-1.7
			c0.9-1.1,1.3-3,1.3-5.7V49.1h4.5v21.3H435.9z"/>
		<path class="st0" d="M450.4,70.3h-4.5V40.4h4.5V70.3z"/>
		<path class="st0" d="M464.8,67.1c1.1,0,2.2-0.2,3.3-0.5V70c-0.5,0.2-1.1,0.4-1.9,0.5c-0.8,0.1-1.6,0.2-2.5,0.2
			c-4.3,0-6.4-2.3-6.4-6.8V52.5h-2.9v-2l3.1-1.7l1.5-4.5h2.8v4.7h6.1v3.4h-6.1v11.4c0,1.1,0.3,1.9,0.8,2.4
			C463.2,66.8,463.9,67.1,464.8,67.1z"/>
		<path class="st0" d="M485.7,70.3l-0.9-3h-0.2c-1,1.3-2.1,2.2-3.1,2.6c-1,0.5-2.4,0.7-4,0.7c-2.1,0-3.7-0.6-4.9-1.7
			c-1.2-1.1-1.8-2.7-1.8-4.8c0-2.2,0.8-3.8,2.4-5s4.1-1.7,7.4-1.8l3.7-0.1v-1.1c0-1.4-0.3-2.4-1-3c-0.6-0.7-1.6-1-3-1
			c-1.1,0-2.1,0.2-3.1,0.5c-1,0.3-2,0.7-2.9,1.1l-1.5-3.2c1.2-0.6,2.4-1.1,3.8-1.4s2.7-0.5,3.9-0.5c2.7,0,4.8,0.6,6.1,1.8
			c1.4,1.2,2.1,3,2.1,5.6v14.3H485.7z M478.9,67.3c1.6,0,3-0.5,4-1.4c1-0.9,1.5-2.2,1.5-3.9v-1.8l-2.7,0.1c-2.1,0.1-3.7,0.4-4.6,1.1
			c-1,0.6-1.5,1.6-1.5,2.9c0,1,0.3,1.7,0.8,2.2C477,67,477.8,67.3,478.9,67.3z"/>
		<path class="st0" d="M524.2,70.3h-4.5V57.3c0-1.6-0.3-2.9-1-3.7c-0.7-0.8-1.7-1.2-3.1-1.2c-1.9,0-3.3,0.6-4.2,1.7
			c-0.9,1.1-1.3,3-1.3,5.7v10.6h-4.5V49.1h3.5l0.6,2.8h0.2c0.6-1,1.6-1.8,2.7-2.3c1.2-0.6,2.5-0.8,3.9-0.8c5.1,0,7.7,2.6,7.7,7.8
			V70.3z"/>
		<path class="st0" d="M545.5,70.3l-0.6-2.8h-0.2c-0.6,1-1.5,1.8-2.7,2.3c-1.2,0.6-2.5,0.8-4,0.8c-2.6,0-4.5-0.6-5.8-1.9
			c-1.3-1.3-1.9-3.2-1.9-5.8V49.1h4.6v13.1c0,1.6,0.3,2.8,1,3.7c0.7,0.8,1.7,1.2,3.1,1.2c1.9,0,3.3-0.6,4.2-1.7
			c0.9-1.1,1.3-3,1.3-5.7V49.1h4.5v21.3H545.5z"/>
		<path class="st0" d="M564.8,70.7c-3.3,0-5.9-1-7.8-2.9c-1.9-1.9-2.8-4.6-2.8-8c0-3.5,0.9-6.2,2.6-8.2c1.7-2,4.1-3,7.1-3
			c2.8,0,5,0.9,6.7,2.6c1.6,1.7,2.4,4.1,2.4,7v2.4h-14.2c0.1,2.1,0.6,3.7,1.7,4.8c1.1,1.1,2.5,1.7,4.4,1.7c1.3,0,2.4-0.1,3.5-0.4
			c1.1-0.2,2.2-0.6,3.5-1.2v3.7c-1.1,0.5-2.2,0.9-3.3,1.1C567.5,70.6,566.2,70.7,564.8,70.7z M564,52.1c-1.4,0-2.6,0.5-3.5,1.4
			c-0.9,0.9-1.4,2.2-1.5,4h9.7c0-1.8-0.4-3.1-1.3-4C566.5,52.6,565.4,52.1,564,52.1z"/>
		<path class="st0" d="M592.5,64.3c0,2.1-0.8,3.7-2.3,4.8c-1.5,1.1-3.7,1.7-6.5,1.7c-2.8,0-5.1-0.4-6.8-1.3v-3.9
			c2.5,1.2,4.8,1.7,7,1.7c2.8,0,4.2-0.8,4.2-2.5c0-0.5-0.2-1-0.5-1.3c-0.3-0.4-0.8-0.7-1.5-1.1c-0.7-0.4-1.7-0.8-2.9-1.3
			c-2.5-1-4.1-1.9-5-2.8c-0.9-0.9-1.3-2.2-1.3-3.7c0-1.8,0.7-3.2,2.2-4.2c1.5-1,3.5-1.5,6-1.5c2.5,0,4.9,0.5,7.1,1.5l-1.5,3.4
			c-2.3-1-4.2-1.4-5.8-1.4c-2.4,0-3.6,0.7-3.6,2c0,0.7,0.3,1.2,0.9,1.7c0.6,0.5,2,1.1,4.1,1.9c1.8,0.7,3,1.3,3.8,1.9
			c0.8,0.6,1.4,1.2,1.8,2C592.3,62.4,592.5,63.3,592.5,64.3z"/>
		<path class="st0" d="M605.3,67.1c1.1,0,2.2-0.2,3.3-0.5V70c-0.5,0.2-1.1,0.4-1.9,0.5c-0.8,0.1-1.6,0.2-2.5,0.2
			c-4.3,0-6.4-2.3-6.4-6.8V52.5h-2.9v-2l3.1-1.7l1.5-4.5h2.8v4.7h6.1v3.4h-6.1v11.4c0,1.1,0.3,1.9,0.8,2.4
			C603.7,66.8,604.4,67.1,605.3,67.1z"/>
		<path class="st0" d="M623.7,48.7c0.9,0,1.7,0.1,2.3,0.2l-0.4,4.2c-0.6-0.2-1.3-0.2-2-0.2c-1.8,0-3.3,0.6-4.4,1.8
			c-1.1,1.2-1.7,2.7-1.7,4.6v11.1h-4.5V49.1h3.5l0.6,3.8h0.2c0.7-1.3,1.6-2.3,2.8-3C621.1,49.1,622.3,48.7,623.7,48.7z"/>
		<path class="st0" d="M643.2,70.3l-0.9-3h-0.2c-1,1.3-2.1,2.2-3.1,2.6c-1,0.5-2.4,0.7-4,0.7c-2.1,0-3.7-0.6-4.9-1.7
			c-1.2-1.1-1.8-2.7-1.8-4.8c0-2.2,0.8-3.8,2.4-5c1.6-1.1,4.1-1.7,7.4-1.8l3.7-0.1v-1.1c0-1.4-0.3-2.4-1-3c-0.6-0.7-1.6-1-3-1
			c-1.1,0-2.1,0.2-3.1,0.5c-1,0.3-2,0.7-2.9,1.1l-1.5-3.2c1.2-0.6,2.4-1.1,3.8-1.4s2.7-0.5,3.9-0.5c2.7,0,4.7,0.6,6.1,1.8
			c1.4,1.2,2.1,3,2.1,5.6v14.3H643.2z M636.4,67.3c1.6,0,3-0.5,4-1.4c1-0.9,1.5-2.2,1.5-3.9v-1.8l-2.7,0.1c-2.1,0.1-3.7,0.4-4.6,1.1
			c-1,0.6-1.5,1.6-1.5,2.9c0,1,0.3,1.7,0.8,2.2C634.5,67,635.3,67.3,636.4,67.3z"/>
		<path class="st0" d="M667,64.3c0,2.1-0.8,3.7-2.3,4.8c-1.5,1.1-3.7,1.7-6.5,1.7c-2.8,0-5.1-0.4-6.8-1.3v-3.9
			c2.5,1.2,4.8,1.7,7,1.7c2.8,0,4.2-0.8,4.2-2.5c0-0.5-0.2-1-0.5-1.3c-0.3-0.4-0.8-0.7-1.5-1.1s-1.7-0.8-2.9-1.3
			c-2.5-1-4.1-1.9-5-2.8c-0.9-0.9-1.3-2.2-1.3-3.7c0-1.8,0.7-3.2,2.2-4.2c1.5-1,3.5-1.5,6-1.5c2.5,0,4.9,0.5,7.1,1.5l-1.5,3.4
			c-2.3-1-4.2-1.4-5.8-1.4c-2.4,0-3.6,0.7-3.6,2c0,0.7,0.3,1.2,0.9,1.7c0.6,0.5,2,1.1,4.1,1.9c1.8,0.7,3,1.3,3.8,1.9
			c0.8,0.6,1.4,1.2,1.8,2C666.8,62.4,667,63.3,667,64.3z"/>
		<path class="st0" d="M353.1,103.5c0,4.6-1.1,8.1-3.4,10.7c-2.3,2.5-5.5,3.8-9.7,3.8c-4.2,0-7.5-1.3-9.8-3.8
			c-2.3-2.5-3.4-6.1-3.4-10.7s1.1-8.2,3.4-10.7c2.3-2.5,5.6-3.7,9.8-3.7c4.2,0,7.4,1.3,9.7,3.8C352,95.4,353.1,98.9,353.1,103.5z
			 M331.6,103.5c0,3.5,0.7,6.1,2.1,7.9c1.4,1.8,3.5,2.7,6.2,2.7c2.7,0,4.8-0.9,6.2-2.7c1.4-1.8,2.1-4.4,2.1-7.9
			c0-3.4-0.7-6.1-2.1-7.9c-1.4-1.8-3.4-2.7-6.2-2.7c-2.8,0-4.8,0.9-6.2,2.7C332.3,97.5,331.6,100.1,331.6,103.5z"/>
		<path class="st0" d="M369.5,96c2.7,0,4.7,1,6.2,2.9c1.5,1.9,2.2,4.6,2.2,8.1c0,3.5-0.8,6.2-2.3,8.1c-1.5,1.9-3.6,2.9-6.3,2.9
			c-2.7,0-4.8-1-6.3-2.9h-0.3l-0.8,2.5h-3.4V87.7h4.5v7.1c0,0.5,0,1.3-0.1,2.3c-0.1,1-0.1,1.7-0.1,2h0.2C364.6,97,366.7,96,369.5,96
			z M368.4,99.7c-1.8,0-3.1,0.5-3.9,1.6c-0.8,1.1-1.2,2.9-1.2,5.4v0.3c0,2.6,0.4,4.5,1.2,5.6c0.8,1.2,2.2,1.7,4,1.7
			c1.6,0,2.8-0.6,3.6-1.9c0.8-1.3,1.2-3.1,1.2-5.5C373.3,102.1,371.7,99.7,368.4,99.7z"/>
		<path class="st0" d="M387.7,117.6h-4.5V87.7h4.5V117.6z"/>
		<path class="st0" d="M393.9,90.7c0-0.8,0.2-1.4,0.7-1.9c0.4-0.4,1.1-0.7,1.9-0.7c0.8,0,1.4,0.2,1.9,0.7c0.4,0.4,0.7,1.1,0.7,1.9
			c0,0.8-0.2,1.4-0.7,1.8c-0.4,0.4-1.1,0.7-1.9,0.7c-0.8,0-1.5-0.2-1.9-0.7C394.1,92.1,393.9,91.5,393.9,90.7z M398.7,117.6h-4.5
			V96.4h4.5V117.6z"/>
		<path class="st0" d="M423.1,96.4v2.5l-3.6,0.7c0.3,0.4,0.6,1,0.8,1.7c0.2,0.7,0.3,1.3,0.3,2.1c0,2.2-0.8,3.9-2.3,5.2
			c-1.5,1.3-3.6,1.9-6.3,1.9c-0.7,0-1.3-0.1-1.8-0.2c-1,0.6-1.5,1.3-1.5,2.1c0,0.5,0.2,0.9,0.7,1.1c0.5,0.2,1.3,0.4,2.5,0.4h3.7
			c2.3,0,4.1,0.5,5.3,1.5c1.2,1,1.8,2.4,1.8,4.3c0,2.4-1,4.3-3,5.6s-4.9,2-8.6,2c-2.9,0-5.1-0.5-6.6-1.5c-1.5-1-2.3-2.5-2.3-4.4
			c0-1.3,0.4-2.4,1.2-3.3c0.8-0.9,2-1.5,3.5-1.9c-0.6-0.3-1.1-0.7-1.5-1.2c-0.4-0.6-0.6-1.2-0.6-1.8c0-0.8,0.2-1.5,0.7-2
			c0.4-0.6,1.1-1.1,2-1.6c-1.1-0.5-2-1.2-2.7-2.3s-1-2.3-1-3.8c0-2.3,0.7-4.1,2.2-5.4c1.5-1.3,3.5-1.9,6.2-1.9c0.6,0,1.2,0,1.9,0.1
			c0.7,0.1,1.2,0.2,1.5,0.3H423.1z M406.4,120.9c0,1,0.4,1.7,1.3,2.3c0.9,0.5,2.1,0.8,3.7,0.8c2.5,0,4.3-0.4,5.5-1.1
			c1.2-0.7,1.8-1.6,1.8-2.8c0-0.9-0.3-1.6-1-2c-0.7-0.4-1.9-0.6-3.7-0.6h-3.4c-1.3,0-2.3,0.3-3.1,0.9
			C406.8,119.1,406.4,119.9,406.4,120.9z M408.4,103.2c0,1.3,0.3,2.4,1,3.1c0.7,0.7,1.7,1.1,3,1.1c2.6,0,3.9-1.4,3.9-4.2
			c0-1.4-0.3-2.5-1-3.2c-0.6-0.8-1.6-1.1-3-1.1c-1.3,0-2.3,0.4-3,1.1C408.7,100.7,408.4,101.8,408.4,103.2z"/>
		<path class="st0" d="M440.4,117.6l-0.9-3h-0.2c-1,1.3-2.1,2.2-3.1,2.6c-1,0.5-2.4,0.7-4,0.7c-2.1,0-3.7-0.6-4.9-1.7
			c-1.2-1.1-1.8-2.7-1.8-4.8c0-2.2,0.8-3.8,2.4-5c1.6-1.1,4.1-1.7,7.4-1.8l3.7-0.1v-1.1c0-1.4-0.3-2.4-1-3c-0.6-0.7-1.6-1-3-1
			c-1.1,0-2.1,0.2-3.1,0.5c-1,0.3-2,0.7-2.9,1.1l-1.5-3.2c1.2-0.6,2.4-1.1,3.8-1.4s2.7-0.5,3.9-0.5c2.7,0,4.8,0.6,6.1,1.8
			c1.4,1.2,2.1,3,2.1,5.6v14.3H440.4z M433.7,114.6c1.6,0,3-0.5,4-1.4c1-0.9,1.5-2.2,1.5-3.9v-1.8l-2.7,0.1
			c-2.1,0.1-3.7,0.4-4.6,1.1c-1,0.6-1.5,1.6-1.5,2.9c0,1,0.3,1.7,0.8,2.2C431.7,114.3,432.5,114.6,433.7,114.6z"/>
		<path class="st0" d="M458.5,118c-3.2,0-5.7-0.9-7.3-2.8c-1.7-1.9-2.5-4.6-2.5-8.1c0-3.6,0.9-6.3,2.6-8.3c1.8-1.9,4.3-2.9,7.6-2.9
			c2.2,0,4.3,0.4,6.1,1.3l-1.4,3.6c-1.9-0.7-3.5-1.1-4.7-1.1c-3.7,0-5.5,2.4-5.5,7.3c0,2.4,0.5,4.2,1.4,5.4c0.9,1.2,2.3,1.8,4,1.8
			c2,0,3.9-0.5,5.7-1.5v3.9c-0.8,0.5-1.7,0.8-2.6,1S459.8,118,458.5,118z"/>
		<path class="st0" d="M469.2,90.7c0-0.8,0.2-1.4,0.7-1.9c0.4-0.4,1.1-0.7,1.9-0.7c0.8,0,1.4,0.2,1.9,0.7s0.7,1.1,0.7,1.9
			c0,0.8-0.2,1.4-0.7,1.8c-0.4,0.4-1.1,0.7-1.9,0.7c-0.8,0-1.5-0.2-1.9-0.7C469.4,92.1,469.2,91.5,469.2,90.7z M474,117.6h-4.5V96.4
			h4.5V117.6z"/>
		<path class="st0" d="M499.3,107c0,3.5-0.9,6.2-2.7,8.1c-1.8,1.9-4.3,2.9-7.4,2.9c-2,0-3.7-0.4-5.3-1.3c-1.5-0.9-2.7-2.2-3.5-3.9
			c-0.8-1.7-1.2-3.6-1.2-5.8c0-3.4,0.9-6.1,2.7-8.1c1.8-1.9,4.3-2.9,7.5-2.9c3.1,0,5.5,1,7.3,3C498.4,100.9,499.3,103.6,499.3,107z
			 M483.8,107c0,4.9,1.8,7.4,5.4,7.4c3.6,0,5.4-2.5,5.4-7.4c0-4.9-1.8-7.3-5.4-7.3c-1.9,0-3.3,0.6-4.1,1.9
			C484.3,102.8,483.8,104.6,483.8,107z"/>
		<path class="st0" d="M523.2,117.6h-4.5v-13.1c0-1.6-0.3-2.9-1-3.7c-0.7-0.8-1.7-1.2-3.1-1.2c-1.9,0-3.3,0.6-4.2,1.7
			c-0.9,1.1-1.3,3-1.3,5.7v10.6h-4.5V96.4h3.5l0.6,2.8h0.2c0.6-1,1.6-1.8,2.7-2.3c1.2-0.6,2.5-0.8,3.9-0.8c5.1,0,7.7,2.6,7.7,7.8
			V117.6z"/>
		<path class="st0" d="M538.8,118c-3.3,0-5.9-1-7.8-2.9s-2.8-4.6-2.8-8c0-3.5,0.9-6.2,2.6-8.2c1.7-2,4.1-3,7.1-3
			c2.8,0,5,0.9,6.7,2.6c1.6,1.7,2.4,4.1,2.4,7v2.4h-14.2c0.1,2.1,0.6,3.7,1.7,4.8c1.1,1.1,2.5,1.7,4.4,1.7c1.3,0,2.4-0.1,3.5-0.4
			c1.1-0.2,2.2-0.6,3.5-1.2v3.7c-1.1,0.5-2.2,0.9-3.3,1.1C541.6,117.9,540.3,118,538.8,118z M538,99.4c-1.4,0-2.6,0.5-3.5,1.4
			c-0.9,0.9-1.4,2.2-1.5,4h9.7c0-1.8-0.4-3.1-1.3-4C540.6,99.8,539.4,99.4,538,99.4z"/>
		<path class="st0" d="M566.5,111.6c0,2.1-0.8,3.7-2.3,4.8c-1.5,1.1-3.7,1.7-6.5,1.7c-2.8,0-5.1-0.4-6.8-1.3v-3.9
			c2.5,1.2,4.8,1.7,7,1.7c2.8,0,4.2-0.8,4.2-2.5c0-0.5-0.2-1-0.5-1.3c-0.3-0.4-0.8-0.7-1.5-1.1c-0.7-0.4-1.7-0.8-2.9-1.3
			c-2.5-1-4.1-1.9-5-2.8c-0.9-0.9-1.3-2.2-1.3-3.7c0-1.8,0.7-3.2,2.2-4.2c1.5-1,3.5-1.5,6-1.5c2.5,0,4.9,0.5,7.1,1.5l-1.5,3.4
			c-2.3-1-4.2-1.4-5.8-1.4c-2.4,0-3.6,0.7-3.6,2c0,0.7,0.3,1.2,0.9,1.7c0.6,0.5,2,1.1,4.1,1.9c1.8,0.7,3,1.3,3.8,1.9
			c0.8,0.6,1.4,1.2,1.8,2C566.3,109.7,566.5,110.5,566.5,111.6z"/>
		<path class="st0" d="M588.8,118c-2.7,0-4.7-1-6.2-2.9c-1.5-1.9-2.2-4.6-2.2-8.1c0-3.5,0.8-6.2,2.3-8.1c1.5-1.9,3.6-2.9,6.3-2.9
			c2.8,0,4.9,1,6.4,3.1h0.2c-0.2-1.5-0.3-2.7-0.3-3.6v-7.8h4.5v29.9h-3.5l-0.8-2.8h-0.2C593.7,117,591.6,118,588.8,118z M590,114.4
			c1.9,0,3.2-0.5,4.1-1.6c0.8-1,1.3-2.7,1.3-5.1v-0.6c0-2.7-0.4-4.6-1.3-5.7c-0.9-1.1-2.2-1.7-4.1-1.7c-1.6,0-2.8,0.6-3.7,1.9
			c-0.9,1.3-1.3,3.1-1.3,5.5c0,2.4,0.4,4.2,1.2,5.4C587.1,113.7,588.4,114.4,590,114.4z"/>
		<path class="st0" d="M615.5,118c-3.3,0-5.9-1-7.8-2.9s-2.8-4.6-2.8-8c0-3.5,0.9-6.2,2.6-8.2c1.7-2,4.1-3,7.1-3
			c2.8,0,5,0.9,6.7,2.6c1.6,1.7,2.4,4.1,2.4,7v2.4h-14.2c0.1,2.1,0.6,3.7,1.7,4.8c1,1.1,2.5,1.7,4.4,1.7c1.3,0,2.4-0.1,3.5-0.4
			c1.1-0.2,2.2-0.6,3.5-1.2v3.7c-1.1,0.5-2.2,0.9-3.3,1.1C618.2,117.9,616.9,118,615.5,118z M614.7,99.4c-1.4,0-2.6,0.5-3.5,1.4
			c-0.9,0.9-1.4,2.2-1.6,4h9.7c0-1.8-0.5-3.1-1.3-4C617.2,99.8,616.1,99.4,614.7,99.4z"/>
		<path class="st0" d="M337.8,164.9h-4.6v-24.2H325v-3.9h21.1v3.9h-8.3V164.9z"/>
		<path class="st0" d="M360.7,143.3c0.9,0,1.7,0.1,2.3,0.2l-0.4,4.2c-0.6-0.2-1.3-0.2-2-0.2c-1.8,0-3.3,0.6-4.4,1.8
			c-1.1,1.2-1.7,2.7-1.7,4.6v11.1h-4.5v-21.3h3.5l0.6,3.8h0.2c0.7-1.3,1.6-2.3,2.8-3C358.2,143.6,359.4,143.3,360.7,143.3z"/>
		<path class="st0" d="M380.2,164.9l-0.9-3h-0.2c-1,1.3-2.1,2.2-3.1,2.6c-1,0.5-2.4,0.7-4,0.7c-2.1,0-3.7-0.6-4.9-1.7
			c-1.2-1.1-1.8-2.7-1.8-4.8c0-2.2,0.8-3.8,2.4-5c1.6-1.1,4.1-1.7,7.4-1.8l3.7-0.1v-1.1c0-1.4-0.3-2.4-1-3c-0.6-0.7-1.6-1-3-1
			c-1.1,0-2.1,0.2-3.1,0.5c-1,0.3-2,0.7-2.9,1.1l-1.5-3.2c1.2-0.6,2.4-1.1,3.8-1.4c1.4-0.3,2.7-0.5,3.9-0.5c2.7,0,4.8,0.6,6.1,1.8
			c1.4,1.2,2.1,3,2.1,5.6v14.3H380.2z M373.5,161.8c1.6,0,3-0.5,4-1.4c1-0.9,1.5-2.2,1.5-3.9v-1.8l-2.7,0.1
			c-2.1,0.1-3.7,0.4-4.6,1.1c-1,0.6-1.5,1.6-1.5,2.9c0,1,0.3,1.7,0.8,2.2C371.5,161.6,372.4,161.8,373.5,161.8z"/>
		<path class="st0" d="M408.5,164.9H404v-13.1c0-1.6-0.3-2.9-1-3.7c-0.7-0.8-1.7-1.2-3.1-1.2c-1.9,0-3.3,0.6-4.2,1.7
			c-0.9,1.1-1.3,3-1.3,5.7v10.6h-4.5v-21.3h3.5l0.6,2.8h0.2c0.6-1,1.6-1.8,2.7-2.3c1.2-0.6,2.5-0.8,3.9-0.8c5.1,0,7.7,2.6,7.7,7.8
			V164.9z"/>
		<path class="st0" d="M429.1,158.9c0,2.1-0.8,3.7-2.3,4.8c-1.5,1.1-3.7,1.7-6.5,1.7c-2.8,0-5.1-0.4-6.8-1.3v-3.9
			c2.5,1.2,4.8,1.7,7,1.7c2.8,0,4.2-0.8,4.2-2.5c0-0.5-0.2-1-0.5-1.3c-0.3-0.4-0.8-0.7-1.5-1.1c-0.7-0.4-1.7-0.8-2.9-1.3
			c-2.5-1-4.1-1.9-5-2.8c-0.9-0.9-1.3-2.2-1.3-3.7c0-1.8,0.7-3.2,2.2-4.2c1.5-1,3.5-1.5,6-1.5c2.5,0,4.9,0.5,7.1,1.5l-1.5,3.4
			c-2.3-1-4.2-1.4-5.8-1.4c-2.4,0-3.6,0.7-3.6,2c0,0.7,0.3,1.2,0.9,1.7s2,1.1,4.1,1.9c1.8,0.7,3,1.3,3.8,1.9c0.8,0.6,1.4,1.2,1.8,2
			C428.9,156.9,429.1,157.8,429.1,158.9z"/>
		<path class="st0" d="M444.8,165.3c-2.7,0-4.8-1-6.3-2.9h-0.3c0.2,1.8,0.3,2.9,0.3,3.3v8.7H434v-30.7h3.7c0.1,0.4,0.3,1.3,0.6,2.8
			h0.2c1.4-2.2,3.5-3.2,6.3-3.2c2.7,0,4.7,1,6.2,2.9c1.5,1.9,2.2,4.6,2.2,8.1c0,3.5-0.8,6.2-2.3,8.1
			C449.5,164.3,447.4,165.3,444.8,165.3z M443.7,146.9c-1.8,0-3.1,0.5-3.9,1.6c-0.8,1.1-1.2,2.7-1.2,5v0.7c0,2.6,0.4,4.5,1.2,5.6
			c0.8,1.2,2.2,1.7,4,1.7c1.6,0,2.8-0.6,3.6-1.9c0.8-1.3,1.3-3.1,1.3-5.5c0-2.4-0.4-4.2-1.3-5.4
			C446.5,147.6,445.3,146.9,443.7,146.9z"/>
		<path class="st0" d="M471.8,164.9l-0.9-3h-0.2c-1,1.3-2.1,2.2-3.1,2.6c-1,0.5-2.4,0.7-4,0.7c-2.1,0-3.7-0.6-4.9-1.7
			c-1.2-1.1-1.8-2.7-1.8-4.8c0-2.2,0.8-3.8,2.4-5c1.6-1.1,4.1-1.7,7.4-1.8l3.7-0.1v-1.1c0-1.4-0.3-2.4-1-3c-0.6-0.7-1.6-1-3-1
			c-1.1,0-2.1,0.2-3.1,0.5c-1,0.3-2,0.7-2.9,1.1l-1.5-3.2c1.2-0.6,2.4-1.1,3.8-1.4c1.4-0.3,2.7-0.5,3.9-0.5c2.7,0,4.8,0.6,6.1,1.8
			c1.4,1.2,2.1,3,2.1,5.6v14.3H471.8z M465.1,161.8c1.6,0,3-0.5,4-1.4c1-0.9,1.5-2.2,1.5-3.9v-1.8l-2.7,0.1
			c-2.1,0.1-3.7,0.4-4.6,1.1c-1,0.6-1.5,1.6-1.5,2.9c0,1,0.3,1.7,0.8,2.2C463.1,161.6,464,161.8,465.1,161.8z"/>
		<path class="st0" d="M492.2,143.3c0.9,0,1.7,0.1,2.3,0.2l-0.4,4.2c-0.6-0.2-1.3-0.2-2-0.2c-1.8,0-3.3,0.6-4.4,1.8
			c-1.1,1.2-1.7,2.7-1.7,4.6v11.1h-4.5v-21.3h3.5l0.6,3.8h0.2c0.7-1.3,1.6-2.3,2.8-3C489.7,143.6,490.9,143.3,492.2,143.3z"/>
		<path class="st0" d="M507.7,165.3c-3.3,0-5.9-1-7.8-2.9s-2.8-4.6-2.8-8c0-3.5,0.9-6.2,2.6-8.2c1.7-2,4.1-3,7.1-3
			c2.8,0,5,0.9,6.7,2.6c1.6,1.7,2.4,4.1,2.4,7v2.4h-14.2c0.1,2.1,0.6,3.7,1.7,4.8c1.1,1.1,2.5,1.7,4.4,1.7c1.3,0,2.4-0.1,3.5-0.4
			c1.1-0.2,2.2-0.6,3.5-1.2v3.7c-1.1,0.5-2.2,0.9-3.3,1.1C510.4,165.2,509.1,165.3,507.7,165.3z M506.8,146.7
			c-1.4,0-2.6,0.5-3.5,1.4c-0.9,0.9-1.4,2.2-1.5,4h9.7c0-1.8-0.5-3.1-1.3-4C509.4,147.1,508.3,146.7,506.8,146.7z"/>
		<path class="st0" d="M539.8,164.9h-4.5v-13.1c0-1.6-0.3-2.9-1-3.7c-0.7-0.8-1.7-1.2-3.1-1.2c-1.9,0-3.3,0.6-4.2,1.7
			c-0.9,1.1-1.3,3-1.3,5.7v10.6h-4.5v-21.3h3.5l0.6,2.8h0.2c0.6-1,1.6-1.8,2.7-2.3c1.2-0.6,2.5-0.8,3.9-0.8c5.1,0,7.7,2.6,7.7,7.8
			V164.9z"/>
		<path class="st0" d="M554.7,165.3c-3.2,0-5.7-0.9-7.3-2.8c-1.7-1.9-2.5-4.6-2.5-8.1c0-3.6,0.9-6.3,2.6-8.3
			c1.8-1.9,4.3-2.9,7.6-2.9c2.2,0,4.3,0.4,6.1,1.3l-1.4,3.6c-1.9-0.7-3.5-1.1-4.7-1.1c-3.7,0-5.5,2.4-5.5,7.3c0,2.4,0.5,4.2,1.4,5.4
			c0.9,1.2,2.3,1.8,4,1.8c2,0,3.9-0.5,5.7-1.5v3.9c-0.8,0.5-1.7,0.8-2.6,1C557.1,165.2,556,165.3,554.7,165.3z"/>
		<path class="st0" d="M565.3,138c0-0.8,0.2-1.4,0.7-1.9c0.4-0.4,1.1-0.7,1.9-0.7c0.8,0,1.4,0.2,1.9,0.7c0.4,0.4,0.7,1.1,0.7,1.9
			c0,0.8-0.2,1.4-0.7,1.8s-1.1,0.7-1.9,0.7c-0.8,0-1.5-0.2-1.9-0.7S565.3,138.8,565.3,138z M570.1,164.9h-4.5v-21.3h4.5V164.9z"/>
		<path class="st0" d="M589.9,164.9l-0.9-3h-0.2c-1,1.3-2.1,2.2-3.1,2.6c-1,0.5-2.4,0.7-4,0.7c-2.1,0-3.7-0.6-4.9-1.7
			c-1.2-1.1-1.8-2.7-1.8-4.8c0-2.2,0.8-3.8,2.4-5c1.6-1.1,4.1-1.7,7.4-1.8l3.7-0.1v-1.1c0-1.4-0.3-2.4-1-3c-0.6-0.7-1.6-1-3-1
			c-1.1,0-2.1,0.2-3.1,0.5c-1,0.3-2,0.7-2.9,1.1l-1.5-3.2c1.2-0.6,2.4-1.1,3.8-1.4c1.4-0.3,2.7-0.5,3.9-0.5c2.7,0,4.7,0.6,6.1,1.8
			c1.4,1.2,2.1,3,2.1,5.6v14.3H589.9z M583.2,161.8c1.6,0,3-0.5,4-1.4c1-0.9,1.5-2.2,1.5-3.9v-1.8l-2.7,0.1
			c-2.1,0.1-3.7,0.4-4.6,1.1c-1,0.6-1.5,1.6-1.5,2.9c0,1,0.3,1.7,0.8,2.2C581.2,161.6,582,161.8,583.2,161.8z"/>
		<path class="st0" d="M326,201.4c0-3.4,0.5-6.6,1.5-9.5c1-3,2.4-5.6,4.3-7.8h3.9c-1.8,2.4-3.1,5.1-4.1,8.1c-0.9,3-1.4,6.1-1.4,9.2
			c0,3.1,0.5,6.2,1.4,9.1c1,2.9,2.3,5.6,4.1,8h-3.9c-1.9-2.2-3.3-4.7-4.3-7.6C326.5,207.9,326,204.8,326,201.4z"/>
		<path class="st0" d="M340.6,212.2v-28.1h4.6v24.2h11.9v3.9H340.6z"/>
		<path class="st0" d="M373.5,196.9h10.4v14.1c-1.7,0.6-3.3,0.9-4.9,1.2c-1.6,0.2-3.2,0.3-5,0.3c-4.3,0-7.5-1.3-9.9-3.8
			c-2.3-2.5-3.5-6.1-3.5-10.7c0-4.5,1.3-8.1,3.9-10.6c2.6-2.6,6.2-3.8,10.8-3.8c2.9,0,5.7,0.6,8.3,1.7l-1.6,3.8
			c-2.3-1.1-4.6-1.6-6.8-1.6c-3,0-5.4,0.9-7.1,2.8c-1.7,1.9-2.6,4.5-2.6,7.7c0,3.4,0.8,6.1,2.4,7.8c1.6,1.8,3.8,2.7,6.8,2.7
			c1.5,0,3.1-0.2,4.8-0.6v-7.3h-5.8V196.9z"/>
		<path class="st0" d="M400.3,212.2h-4.6V188h-8.3v-3.9h21.1v3.9h-8.3V212.2z"/>
		<path class="st0" d="M440.6,212.2l-2.8-7.8H427l-2.8,7.8h-4.8l10.5-28.2h5l10.5,28.2H440.6z M436.5,200.4l-2.6-7.7
			c-0.2-0.5-0.5-1.3-0.8-2.4c-0.3-1.1-0.6-1.9-0.7-2.4c-0.3,1.6-0.9,3.3-1.5,5.2l-2.5,7.3H436.5z"/>
		<path class="st0" d="M459.5,190.5c0.9,0,1.7,0.1,2.3,0.2l-0.4,4.2c-0.6-0.2-1.3-0.2-2-0.2c-1.8,0-3.3,0.6-4.4,1.8
			c-1.1,1.2-1.7,2.7-1.7,4.6v11.1h-4.5v-21.3h3.5l0.6,3.8h0.2c0.7-1.3,1.6-2.3,2.8-3C456.9,190.9,458.2,190.5,459.5,190.5z"/>
		<path class="st0" d="M473.6,208.9c1.1,0,2.2-0.2,3.3-0.5v3.4c-0.5,0.2-1.1,0.4-1.9,0.5c-0.8,0.1-1.6,0.2-2.5,0.2
			c-4.3,0-6.4-2.3-6.4-6.8v-11.5h-2.9v-2l3.1-1.7l1.5-4.5h2.8v4.7h6.1v3.4h-6.1v11.4c0,1.1,0.3,1.9,0.8,2.4
			C472,208.7,472.7,208.9,473.6,208.9z"/>
		<path class="st0" d="M480.9,188.3v-0.5c0.7-0.9,1.5-1.9,2.3-3c0.8-1.1,1.4-2,1.8-2.8h5.3v0.4c-0.7,0.8-1.7,1.8-3,3
			c-1.3,1.2-2.4,2.2-3.4,2.9H480.9z M485.7,212.2h-4.5v-21.3h4.5V212.2z"/>
		<path class="st0" d="M500.7,212.6c-3.2,0-5.7-0.9-7.3-2.8c-1.7-1.9-2.5-4.6-2.5-8.1c0-3.6,0.9-6.3,2.6-8.3
			c1.8-1.9,4.3-2.9,7.6-2.9c2.2,0,4.3,0.4,6.1,1.3l-1.4,3.6c-1.9-0.7-3.5-1.1-4.7-1.1c-3.7,0-5.5,2.4-5.5,7.3c0,2.4,0.5,4.2,1.4,5.4
			c0.9,1.2,2.3,1.8,4,1.8c2,0,3.9-0.5,5.7-1.5v3.9c-0.8,0.5-1.7,0.8-2.6,1C503.1,212.5,502,212.6,500.7,212.6z"/>
		<path class="st0" d="M526.7,212.2l-0.6-2.8h-0.2c-0.6,1-1.5,1.8-2.7,2.3c-1.2,0.6-2.5,0.8-4,0.8c-2.6,0-4.5-0.6-5.8-1.9
			c-1.3-1.3-1.9-3.2-1.9-5.8v-13.9h4.6V204c0,1.6,0.3,2.8,1,3.7c0.7,0.8,1.7,1.2,3.1,1.2c1.9,0,3.3-0.6,4.2-1.7
			c0.9-1.1,1.3-3,1.3-5.7v-10.6h4.5v21.3H526.7z"/>
		<path class="st0" d="M541.2,212.2h-4.5v-29.9h4.5V212.2z"/>
		<path class="st0" d="M566.5,201.5c0,3.5-0.9,6.2-2.7,8.1c-1.8,1.9-4.3,2.9-7.4,2.9c-2,0-3.7-0.4-5.3-1.3c-1.5-0.9-2.7-2.2-3.5-3.9
			c-0.8-1.7-1.2-3.6-1.2-5.8c0-3.4,0.9-6.1,2.7-8.1c1.8-1.9,4.3-2.9,7.5-2.9c3.1,0,5.5,1,7.3,3C565.6,195.5,566.5,198.2,566.5,201.5
			z M551,201.5c0,4.9,1.8,7.4,5.4,7.4c3.6,0,5.4-2.5,5.4-7.4c0-4.9-1.8-7.3-5.4-7.3c-1.9,0-3.3,0.6-4.1,1.9
			C551.5,197.4,551,199.2,551,201.5z"/>
		<path class="st0" d="M580.5,200.2c0-11,4.5-16.5,13.4-16.5c1.4,0,2.6,0.1,3.6,0.3v3.8c-1-0.3-2.1-0.4-3.4-0.4
			c-3,0-5.3,0.8-6.8,2.4c-1.5,1.6-2.3,4.2-2.5,7.8h0.2c0.6-1,1.4-1.8,2.5-2.4c1.1-0.6,2.4-0.9,3.8-0.9c2.6,0,4.5,0.8,6,2.3
			c1.4,1.6,2.1,3.7,2.1,6.4c0,3-0.8,5.3-2.5,7c-1.7,1.7-3.9,2.6-6.7,2.6c-2,0-3.8-0.5-5.3-1.5c-1.5-1-2.6-2.4-3.4-4.2
			C580.9,205,580.5,202.8,580.5,200.2z M590.3,208.9c1.6,0,2.7-0.5,3.6-1.5c0.8-1,1.3-2.4,1.3-4.3c0-1.6-0.4-2.9-1.2-3.8
			c-0.8-0.9-2-1.4-3.6-1.4c-1,0-1.9,0.2-2.7,0.6c-0.8,0.4-1.5,1-1.9,1.7c-0.5,0.7-0.7,1.5-0.7,2.2c0,1.8,0.5,3.3,1.5,4.6
			C587.6,208.2,588.8,208.9,590.3,208.9z"/>
		<path class="st0" d="M623,206.1h-3.8v6.1h-4.4v-6.1H602v-3.5l12.9-18.6h4.4v18.3h3.8V206.1z M614.8,202.3v-7.1
			c0-2.5,0.1-4.6,0.2-6.2h-0.2c-0.4,0.8-0.9,1.9-1.7,3.1l-7,10.2H614.8z"/>
		<path class="st0" d="M634.6,201.4c0,3.4-0.5,6.5-1.5,9.4c-1,2.9-2.4,5.4-4.3,7.6h-3.9c1.8-2.4,3.1-5.1,4.1-8
			c0.9-2.9,1.4-6,1.4-9.1c0-3.1-0.5-6.2-1.4-9.2c-1-3-2.3-5.7-4.1-8.1h3.9c1.9,2.2,3.3,4.9,4.3,7.8S634.6,198,634.6,201.4z"/>
	</g>
	<g>
		<path class="st0" d="M159.8,82.9c-6.5,0-11.8-5-11.8-11.1c0-6.1,5.3-11.1,11.8-11.1c6.5,0,11.8,5,11.8,11.1
			C171.6,77.9,166.3,82.9,159.8,82.9z M159.8,67.3c-2.6,0-4.7,2-4.7,4.5c0,2.5,2.1,4.5,4.7,4.5c2.6,0,4.7-2,4.7-4.5
			C164.5,69.3,162.4,67.3,159.8,67.3z"/>
		<g>
			<path class="st0" d="M86.1,103.2L55.4,77c-2-1.6-4.9-1.5-6.7,0.4c-1.7,1.8-1.6,4.7,0.4,6.3L72.9,104H21.7c-2.6,0-4.7,2-4.7,4.5
				c0,2.5,2.1,4.5,4.7,4.5h52.1l-24.7,21c-2,1.6-2.1,4.5-0.4,6.3c1.7,1.8,4.7,2,6.7,0.4l30.6-26.1c3.3-2.8,3.5-7.6,0.6-10.7
				C86.5,103.6,86.3,103.4,86.1,103.2L86.1,103.2z"/>
			<path class="st0" d="M164.3,163.7c-2.6,0-4.7-2-4.7-4.5V97.1h-7.2c-2.6,0-4.7-2-4.7-4.5c0-2.5,2.1-4.5,4.7-4.5h11.9
				c2.6,0,4.7,2,4.7,4.5v59.7l9.7-4.1c2.4-1,5.2,0,6.2,2.2c1.1,2.2,0,4.9-2.4,5.9l-16.3,7C165.6,163.6,164.9,163.7,164.3,163.7z"/>
			<path class="st0" d="M233.4,199H120.7c-16.5,0-29.9-12.7-29.9-28.3v-30.3c0-2.5,2.1-4.5,4.7-4.5c2.6,0,4.7,2,4.7,4.5v30.3
				c0,10.7,9.2,19.4,20.5,19.4h108V46.8c0-10.7-9.2-19.4-20.5-19.4h-108v38c0,2.5-2.1,4.5-4.7,4.5c-2.6,0-4.7-2-4.7-4.5V23
				c0-2.5,2.1-4.5,4.7-4.5h112.7c16.5,0,29.9,12.7,29.9,28.3v147.7C238.1,197,236,199,233.4,199C233.4,199,233.4,199,233.4,199z"/>
		</g>
	</g>
</g>
</svg>
