<?xml version="1.0" encoding="utf-8"?>
<!-- Generator: Adobe Illustrator 27.7.0, SVG Export Plug-In . SVG Version: 6.00 Build 0)  -->
<svg version="1.1" id="Capa_1" xmlns="http://www.w3.org/2000/svg" xmlns:xlink="http://www.w3.org/1999/xlink" x="0px" y="0px"
	 viewBox="0 0 1584 487" style="enable-background:new 0 0 1584 487;" xml:space="preserve">
<style type="text/css">
	.st0{fill:#003A70;}
</style>
<g>
	<g>
		<g>
			<path class="st0" d="M797.2,68.7h7.1c0.1,0,0.1-0.1,0.1-0.1V8.7c0-0.1-0.1-0.1-0.1-0.1h-7.1c-0.1,0-0.1,0.1-0.1,0.1v59.9
				C797.1,68.7,797.1,68.7,797.2,68.7z"/>
			<path class="st0" d="M819.8,68.6h6.8c0.1,0,0.1-0.1,0.1-0.1V39.3c0.7-2.4,2.1-4.5,4.1-6c2-1.6,4.5-2.4,7.4-2.4
				c3.3,0,5.7,1.1,7,3.3c1.2,2.1,1.9,5.5,1.9,9.9v24.4c0,0.1,0.1,0.1,0.1,0.1c0.1,0,0.1,0,0.1-0.1h6.9c0.1,0,0.1-0.1,0.1-0.1V42.7
				c0-3.6-0.3-6.5-0.9-8.8c-0.6-2.3-1.5-4.1-2.7-5.5c-1.3-1.5-2.7-2.5-4.5-2.9c-1.9-0.5-4-0.8-6.2-0.8c-3.2,0-6.1,0.6-8.4,1.8
				c-2.3,1.2-4.1,2.6-5.5,4.5H826l-1.3-5.1c0-0.1-0.1-0.1-0.1-0.1h-4.8c-0.1,0-0.1,0.1-0.1,0.1v42.7
				C819.7,68.6,819.7,68.6,819.8,68.6z"/>
			<path class="st0" d="M861.8,31.9h6.6v36.7c0,0.1,0.1,0.1,0.1,0.1h6.8c0.1,0,0.1-0.1,0.1-0.1V31.9h11.3c0.1,0,0.1-0.1,0.1-0.1v-6
				c0-0.1-0.1-0.1-0.1-0.1h-11.3v-1.1c0-1.7,0-3.2,0.1-4.5c0.1-1.3,0.3-2.4,0.7-3.2c0.4-0.8,0.9-1.4,1.7-1.9
				c0.9-0.5,1.9-0.7,3.4-0.7c1,0,2.1,0.1,3.3,0.3c1,0.2,2.3,0.5,3.7,1.1c0,0,0.1,0,0.1,0c0,0,0.1,0,0.1-0.1l1.5-5.7
				c0-0.1,0-0.1-0.1-0.1c-1.8-0.7-3.2-1.1-4.4-1.3c-1.4-0.2-3-0.3-4.8-0.3c-2.3,0-4.3,0.3-5.7,0.9c-1.6,0.6-2.8,1.5-3.9,2.7
				c-1,1.2-1.7,2.8-2.1,4.8c-0.4,1.9-0.6,4.2-0.6,6.8v2.3h-6.6c-0.1,0-0.1,0.1-0.1,0.1v6C861.7,31.9,861.7,31.9,861.8,31.9z"/>
			<path class="st0" d="M895.8,63.6c1.7,2,3.6,3.5,5.9,4.5c2.2,1.1,5,1.6,8.4,1.6c6,0,10.7-2,14-5.8c3.2-3.8,4.8-9.4,4.8-16.7
				c0-3.2-0.4-6.3-1.1-9.2c-0.7-2.6-1.8-4.9-3.4-7.2c-1.6-1.9-3.6-3.4-5.9-4.5c-2.2-1.1-5-1.6-8.4-1.6c-6,0-10.7,2-14,5.8
				c-3.2,3.8-4.8,9.4-4.8,16.7c0,3.2,0.4,6.3,1.1,9.2C893,59,894.1,61.4,895.8,63.6z M898.6,47.2c0-6.4,1.3-11,4-13.6
				c1.8-1.7,4.1-2.6,7.1-2.6c0.1,0,0.3,0,0.4,0c2.2,0,3.9,0.4,5.3,1.3c1.4,0.8,2.6,1.9,3.6,3.5c1,1.6,1.6,3.3,2,5.2
				c0.4,2,0.6,4.1,0.6,6.3c0,6.4-1.3,11-4,13.6c-1.8,1.8-4.3,2.7-7.3,2.7c-0.1,0-0.1,0-0.2,0c-2,0-3.8-0.5-5.3-1.4
				c-1.5-0.9-2.7-2.1-3.6-3.6c-1-1.6-1.6-3.3-2-5.2C898.8,51.4,898.6,49.3,898.6,47.2z"/>
			<path class="st0" d="M939.6,68.6h6.8c0.1,0,0.1-0.1,0.1-0.1l0-29.9c0.4-2.1,1.3-3.8,2.7-5c1.4-1.3,3.3-2,5.7-2
				c1.6,0,3.2,0.3,4.9,0.9c0,0,0.1,0,0.1,0s0.1,0,0.1-0.1l1.5-6.6c0-0.1,0-0.1-0.1-0.1c-2.2-0.6-4-0.9-5.6-0.9
				c-2.5,0-4.4,0.5-5.9,1.6c-1.5,1.1-2.8,2.6-3.9,4.5h-0.1l-1.3-5.1c0-0.1-0.1-0.1-0.1-0.1h-4.8c-0.1,0-0.1,0.1-0.1,0.1v42.7
				C939.5,68.6,939.5,68.6,939.6,68.6z"/>
			<path class="st0" d="M968.9,68.7h6.8c0.1,0,0.1-0.1,0.1-0.1V39.2c0.7-2.4,1.9-4.4,3.6-5.9c1.7-1.6,3.8-2.4,6.4-2.4
				c1.6,0,2.9,0.3,4,0.9c0.9,0.6,1.7,1.4,2.4,2.6c0.6,1.1,1,2.5,1.2,4.2c0.2,1.6,0.3,3.6,0.3,5.9v24.2c0,0.1,0.1,0.1,0.1,0.1h7
				c0.1,0,0.1-0.1,0.1-0.1l0-28.6c0.7-3,1.8-5.2,3.4-6.7c1.6-1.6,3.8-2.4,6.6-2.4c1.8,0,3,0.2,4,0.7c1.1,0.5,1.9,1.2,2.4,2.2
				c0.6,1,1,2.2,1.2,3.8c0.2,1.5,0.3,3.2,0.3,5.3v25.7c0,0.1,0.1,0.1,0.1,0.1h6.8c0.1,0,0.1-0.1,0.1-0.1V42.9c0-3.8-0.2-6.8-0.7-8.9
				c-0.5-2.4-1.3-4.2-2.4-5.7c-1.2-1.5-2.5-2.5-4.2-2.9c-1.8-0.5-3.9-0.8-6.1-0.8c-3,0-5.6,0.6-7.9,1.9c-2.2,1.1-4,2.8-5.3,5
				c-1-2.4-2.3-4.2-4.1-5.3c-1.7-1.1-3.9-1.6-6.8-1.6c-3.3,0-6,0.6-8,1.8c-2.1,1.2-3.8,2.7-5.3,4.5h-0.1l-1.3-5.1
				c0-0.1-0.1-0.1-0.1-0.1h-4.8c-0.1,0-0.1,0.1-0.1,0.1v42.8C968.8,68.7,968.8,68.7,968.9,68.7z"/>
			<path class="st0" d="M1038.3,66.1c1.3,1.1,2.6,1.8,4.1,2.4c1.6,0.6,3.3,0.9,5.1,0.9c1.8,0,3.5-0.2,4.9-0.6
				c1.4-0.4,2.6-0.9,3.8-1.5c1-0.6,2-1.3,2.8-2.1c0.7-0.8,1.4-1.6,1.9-2.4h0.2l1.8,5.9c0,0.1,0.1,0.1,0.1,0.1h5c0,0,0.1,0,0.1,0
				c0,0,0-0.1,0-0.1c-0.4-1.6-0.7-3.3-0.9-5.2c-0.2-1.9-0.3-3.9-0.3-6c0-2.9,0.1-6,0.3-9.2c0.2-3.2,0.3-6.5,0.3-10
				c0-1.4-0.2-3-0.5-4.6c-0.3-1.4-0.9-2.8-1.9-4.2c-0.9-1.3-2.2-2.3-4.2-3.1c-1.8-0.8-4.2-1.2-7.2-1.2c-3.1,0-6.1,0.3-9,0.9
				c-2.8,0.6-5.3,1.5-7.6,2.9c-0.1,0-0.1,0.1-0.1,0.2l2.2,5.4c0,0,0,0.1,0.1,0.1c0,0,0.1,0,0.1,0c0.7-0.5,1.6-0.9,2.8-1.3
				c1-0.4,2-0.7,3.3-1c0.5-0.1,0.9-0.2,1.3-0.3c0.7-0.1,1.4-0.3,2.1-0.3l0.3,0c1-0.1,1.9-0.2,2.8-0.2c3.3,0,5.4,0.6,6.7,1.9
				c1.3,1.3,1.9,3.4,1.9,6.5c0,1.3-0.1,2.8-0.3,4.5c-0.7-0.1-1.5-0.2-2.3-0.2h-2.4c-3.1,0-6,0.2-8.6,0.6c-2.7,0.4-5,1.1-6.7,2.1
				c-1.9,1.1-3.4,2.4-4.3,4c-1,1.7-1.5,3.9-1.5,6.4c0,1.9,0.3,3.6,1,5.1C1036.2,63.7,1037.1,64.9,1038.3,66.1z M1042.1,56.5
				c0-1.4,0.4-2.5,1.2-3.4c0.9-1,1.9-1.7,3.1-2.2c1.3-0.5,2.8-0.9,4.4-1.1c1.7-0.2,3.4-0.3,5.2-0.3h2.4c0.7,0,1.5,0,2.3,0.1v7
				c-0.4,0.9-0.8,1.6-1.3,2.3c-0.6,0.9-1.5,1.6-2.3,2.2c-0.9,0.6-1.9,1.2-3.2,1.6c-1.3,0.4-2.7,0.6-4.3,0.6c-2.1,0-4-0.6-5.4-1.9
				C1042.8,60,1042.1,58.4,1042.1,56.5z"/>
			<path class="st0" d="M1082.1,63.6c1.6,2,3.4,3.5,5.6,4.5c2.3,1.1,5,1.6,8.5,1.6c2.7,0,5.2-0.3,7.4-1c2.6-0.7,4.5-1.7,6.1-2.9
				c0,0,0.1-0.1,0-0.2l-2.4-5.2c0,0,0-0.1-0.1-0.1c0,0-0.1,0-0.1,0c-1.1,0.8-2.4,1.5-4,2.1c-1.6,0.6-3.4,0.9-5.5,0.9
				c-2.3,0-4.3-0.5-5.9-1.4c-1.6-0.9-2.9-2.1-3.9-3.6c-1-1.5-1.7-3.2-2.1-5.2c-0.4-2-0.6-4-0.6-6.2c0-10.8,4-16.3,12-16.3
				c1.8,0,3.5,0.2,5.1,0.6c1.7,0.5,3.1,1.1,4.4,1.8c0,0,0.1,0,0.1,0c0,0,0.1,0,0.1-0.1l2-5.9c0-0.1,0-0.1-0.1-0.2
				c-1.6-0.8-3.4-1.4-5.2-1.8c-1.9-0.4-4.3-0.6-7-0.6c-6,0-10.6,2-13.9,5.8c-3.2,3.8-4.8,9.4-4.8,16.7c0,3.5,0.3,6.5,1,9.2
				C1079.6,59.3,1080.6,61.6,1082.1,63.6z"/>
			<path class="st0" d="M1120.5,25.7c-0.1,0-0.1,0.1-0.1,0.1v42.7c0,0.1,0.1,0.1,0.1,0.1h6.8c0.1,0,0.1-0.1,0.1-0.1V25.8
				c0-0.1-0.1-0.1-0.1-0.1H1120.5z"/>
			<path class="st0" d="M1123.8,17.4c1.4,0,2.6-0.4,3.6-1.3c1-0.8,1.5-1.9,1.5-3.3c0-1.4-0.5-2.6-1.5-3.5c-1.1-1-2.2-1.4-3.6-1.4
				c-1.4,0-2.5,0.5-3.5,1.4c-0.9,1-1.3,2.1-1.3,3.5c0,1.4,0.5,2.5,1.3,3.3C1121.2,17,1122.3,17.4,1123.8,17.4z"/>
			<path class="st0" d="M1154.9,19.8h4c0,0,0.1,0,0.1,0l8.6-10.9c0,0,0,0,0-0.1V7c0-0.1-0.1-0.1-0.1-0.1h-7.6c-0.1,0-0.1,0-0.1,0.1
				l-5,12.7c0,0,0,0.1,0,0.1S1154.9,19.8,1154.9,19.8z"/>
			<path class="st0" d="M1144,63.6c1.7,2,3.6,3.5,5.9,4.5c2.2,1.1,5,1.6,8.4,1.6c6,0,10.7-2,14-5.8c3.2-3.8,4.8-9.4,4.8-16.7
				c0-3.2-0.4-6.3-1.1-9.2c-0.7-2.9-1.9-5.3-3.4-7.2c-1.6-1.9-3.6-3.4-5.9-4.5c-2.2-1.1-5-1.6-8.4-1.6c-6,0-10.7,2-14,5.8
				c-3.2,3.8-4.8,9.4-4.8,16.7c0,3.2,0.4,6.3,1.1,9.2C1141.2,59,1142.3,61.4,1144,63.6z M1146.8,47.2c0-6.4,1.3-11,4-13.6
				c1.8-1.7,4.1-2.6,7.1-2.6c0.1,0,0.3,0,0.4,0c2.2,0,3.9,0.4,5.3,1.3c1.4,0.8,2.6,1.9,3.6,3.5c1,1.6,1.6,3.3,2,5.2
				c0.4,2,0.6,4.1,0.6,6.3c0,6.4-1.3,11-4,13.6c-1.8,1.8-4.3,2.7-7.3,2.7c-0.1,0-0.1,0-0.2,0c-2,0-3.8-0.5-5.3-1.4
				c-1.5-0.9-2.7-2.1-3.6-3.6c-1-1.6-1.6-3.3-2-5.2C1147,51.4,1146.8,49.3,1146.8,47.2z"/>
			<path class="st0" d="M1218.8,28.3c-1.3-1.5-2.7-2.5-4.5-2.9c-1.9-0.5-4-0.8-6.2-0.8c-3.2,0-6.1,0.6-8.4,1.8
				c-2.3,1.2-4.1,2.6-5.5,4.5h-0.1l-1.3-5.1c0-0.1-0.1-0.1-0.1-0.1h-4.8c-0.1,0-0.1,0.1-0.1,0.1v42.7c0,0.1,0.1,0.1,0.1,0.1h6.8
				c0.1,0,0.1-0.1,0.1-0.1V39.3c0.7-2.4,2.1-4.5,4.1-6c2-1.6,4.5-2.4,7.4-2.4c3.3,0,5.7,1.1,7,3.3c1.2,2.1,1.9,5.5,1.9,9.9v24.4
				c0,0.1,0.1,0.1,0.1,0.1c0.1,0,0.1,0,0.1-0.1h6.9c0.1,0,0.1-0.1,0.1-0.1V42.7c0-3.6-0.3-6.5-0.9-8.8
				C1220.9,31.6,1220,29.8,1218.8,28.3z"/>
			<path class="st0" d="M1288,11.5c-2.4-1.4-4.9-2.3-7.4-2.8c-2.9-0.5-5.6-0.8-8-0.8c-2.4,0-4.9,0.1-7.4,0.3c-2.2,0.1-4.4,0.4-7,1
				h-0.1c-0.1,0-0.1,0.1-0.1,0.1v59.1c0,0.1,0.1,0.1,0.1,0.1h7.1c0.1,0,0.1-0.1,0.1-0.1V45.9c0.2,0,0.4,0.1,0.6,0.1
				c0.2,0,0.5,0,0.8,0.1c0.3,0,0.7,0,1,0c0.3,0,0.7,0.1,1.1,0.1h3.5c3.1,0,6-0.3,8.6-1c2.8-0.7,5.2-1.8,7.4-3.4
				c2.2-1.7,4-3.8,5.2-6.1c1.3-2.6,2-5.7,2-9.3c0-3.7-0.7-6.7-2.1-9.2C1292,14.8,1290.3,13,1288,11.5z M1288,26.3
				c0,2.7-0.5,4.9-1.4,6.7c-0.8,1.6-2,3-3.7,4.1c-1.5,0.9-3.1,1.6-5.2,2c-1.9,0.4-3.9,0.6-5.8,0.6h-3.4c-0.4,0-0.7,0-1.1-0.1
				c-0.3,0-0.6,0-0.9,0c-0.6,0-1-0.1-1.3-0.2V14.8c0.7-0.2,1.6-0.3,3.1-0.4c1.4-0.1,2.8-0.1,4.3-0.1c1.7,0,3.4,0.2,5.2,0.3l0.5,0
				c1.7,0.4,3.3,1,4.9,2c1.5,1.1,2.7,2.3,3.5,3.8C1287.5,22,1288,23.9,1288,26.3z"/>
			<path class="st0" d="M1338.5,62.6c-0.1-2.1-0.2-4.1-0.2-6.2V25.8c0-0.1-0.1-0.1-0.1-0.1h-6.8c-0.1,0-0.1,0.1-0.1,0.1v28.8
				c-0.5,1.3-1.1,2.4-1.8,3.5c-0.7,1.1-1.6,2-2.5,2.9c-0.9,0.8-2,1.5-3.2,2c-1.1,0.5-2.5,0.7-4.1,0.7c-1.6,0-2.9-0.3-4-0.9
				c-1-0.5-1.9-1.3-2.5-2.4c-0.6-1-1-2.3-1.3-4.2c-0.3-1.5-0.4-3.4-0.4-5.9V25.8c0-0.1-0.1-0.1-0.1-0.1h-6.9c-0.1,0-0.1,0.1-0.1,0.1
				v25.8c0,3.6,0.3,6.5,0.9,8.8c0.6,2.3,1.5,4.1,2.7,5.5c1.2,1.4,2.8,2.4,4.5,2.9c1.8,0.5,3.8,0.8,6,0.8c3.6,0,6.4-0.7,8.6-2.2
				c2.2-1.5,4-3.4,5.3-5.6h0.2l1.7,6.7c0,0.1,0.1,0.1,0.1,0.1h4.7c0,0,0.1,0,0.1,0s0-0.1,0-0.1c-0.3-1.7-0.6-3.6-0.7-5.8
				L1338.5,62.6z"/>
			<path class="st0" d="M1318,19.8h4c0,0,0.1,0,0.1,0l8.6-10.9c0,0,0,0,0-0.1V7c0-0.1-0.1-0.1-0.1-0.1h-7.6c-0.1,0-0.1,0-0.1,0.1
				l-5,12.7c0,0,0,0.1,0,0.1S1318,19.8,1318,19.8z"/>
			<path class="st0" d="M1370,24.7c-2.3,0-4.6,0.5-6.7,1.4c-2.1,1-3.8,2.2-5,3.8h-0.1V8.7c0-0.1-0.1-0.1-0.1-0.1h-7.1
				c-0.1,0-0.1,0.1-0.1,0.1v57.4c0,0,0,0.1,0.1,0.1c1.4,0.8,3.3,1.5,5.9,2.2c2.5,0.7,5.4,1,8.7,1c6.7,0,11.9-2,15.5-5.8
				c3.7-3.9,5.5-9.5,5.5-17.1c0-7.6-1.3-13-4.1-16.5C1379.8,26.5,1375.6,24.7,1370,24.7z M1379.6,46.5c0,5.7-1.2,10-3.5,12.7
				c-2.3,2.7-5.4,4.1-9.2,4.1c-1.5,0-3.1-0.2-4.8-0.5c-1.4-0.3-2.6-0.7-3.8-1.4l0-21.4c0.7-2.9,1.9-5.1,3.8-6.7
				c1.7-1.6,4-2.4,6.8-2.4c2,0,3.6,0.4,4.9,1.3c1.2,0.7,2.3,1.7,3.3,3.2c0.8,1.3,1.5,2.9,1.9,5C1379.4,42.2,1379.6,44.3,1379.6,46.5
				z"/>
			<path class="st0" d="M1414.4,62.5c0,0-0.1,0-0.1,0c-1,0.4-2,0.7-2.9,0.8l-0.3,0c-0.8,0.1-1.5,0.2-2.1,0.2c-1.2,0-2.2-0.4-2.8-1.3
				c-0.7-0.9-1-2.2-1-4.2V8.7c0-0.1-0.1-0.1-0.1-0.1h-6.8c-0.1,0-0.1,0.1-0.1,0.1v51.2c0,3.5,0.8,6,2.5,7.5c1.6,1.5,3.7,2.2,6.4,2.2
				c1.4,0,2.8-0.1,4.2-0.4c1.7-0.3,2.9-0.6,3.8-1.1c0,0,0.1-0.1,0.1-0.1L1414.4,62.5C1414.4,62.5,1414.4,62.5,1414.4,62.5z"/>
			<path class="st0" d="M1430.7,25.7h-6.8c-0.1,0-0.1,0.1-0.1,0.1v42.7c0,0.1,0.1,0.1,0.1,0.1h6.8c0.1,0,0.1-0.1,0.1-0.1V25.8
				C1430.8,25.7,1430.8,25.7,1430.7,25.7z"/>
			<path class="st0" d="M1427.1,7.9c-1.4,0-2.5,0.5-3.5,1.4c-0.9,1-1.3,2.1-1.3,3.5c0,1.3,0.5,2.4,1.3,3.3c0.9,0.9,2,1.3,3.5,1.3
				c1.4,0,2.6-0.4,3.6-1.3c1-0.8,1.5-1.9,1.5-3.3c0-1.4-0.5-2.6-1.5-3.5C1429.6,8.3,1428.5,7.9,1427.1,7.9z"/>
			<path class="st0" d="M1472.2,60.4C1472.2,60.4,1472.2,60.4,1472.2,60.4c-0.1-0.1-0.2-0.1-0.2,0c-1.1,0.8-2.4,1.5-4,2.1
				c-1.6,0.6-3.4,0.9-5.5,0.9c-2.3,0-4.3-0.5-5.9-1.4c-1.6-0.9-2.9-2.1-3.9-3.6c-1-1.5-1.7-3.2-2.1-5.2c-0.4-2-0.6-4-0.6-6.2
				c0-10.8,4-16.3,12-16.3c1.8,0,3.5,0.2,5.1,0.6c1.7,0.5,3.1,1.1,4.4,1.8c0,0,0.1,0,0.1,0c0,0,0.1,0,0.1-0.1l2-5.9
				c0-0.1,0-0.1-0.1-0.2c-1.6-0.8-3.4-1.4-5.2-1.8c-1.9-0.4-4.3-0.6-7-0.6c-6,0-10.6,2-13.9,5.8c-3.2,3.8-4.8,9.4-4.8,16.7
				c0,3.5,0.3,6.5,1,9.2c0.7,2.9,1.8,5.2,3.2,7.1c1.6,2,3.4,3.5,5.6,4.5c2.3,1.1,5,1.6,8.5,1.6c2.7,0,5.2-0.3,7.4-1
				c2.6-0.7,4.5-1.7,6.1-2.9c0,0,0.1-0.1,0-0.2L1472.2,60.4z"/>
			<path class="st0" d="M1512.9,57.5c0-2.9,0.1-6,0.3-9.2c0.2-3.2,0.3-6.6,0.3-10c0-1.4-0.2-3-0.5-4.6c-0.3-1.4-0.9-2.8-1.9-4.2
				c-0.9-1.3-2.2-2.3-4.2-3.1c-1.8-0.8-4.2-1.2-7.2-1.2c-3.1,0-6.1,0.3-9,0.9c-2.8,0.6-5.3,1.5-7.6,2.9c-0.1,0-0.1,0.1-0.1,0.2
				l2.2,5.4c0,0,0,0.1,0.1,0.1c0,0,0.1,0,0.1,0c0.7-0.5,1.6-0.9,2.8-1.3c1-0.4,2-0.7,3.3-1c0.5-0.1,0.9-0.2,1.3-0.3
				c0.7-0.1,1.4-0.3,2.1-0.3l0.3,0c1-0.1,1.9-0.2,2.8-0.2c3.3,0,5.4,0.6,6.7,1.9c1.3,1.3,1.9,3.4,1.9,6.5c0,1.3-0.1,2.8-0.3,4.5
				c-0.7-0.1-1.5-0.2-2.3-0.2h-2.4c-3.1,0-6,0.2-8.6,0.6c-2.7,0.4-5,1.1-6.7,2.1c-1.9,1.1-3.4,2.4-4.3,4c-1,1.7-1.5,3.9-1.5,6.4
				c0,1.9,0.3,3.6,1,5.1c0.7,1.4,1.5,2.6,2.7,3.8c1.3,1.1,2.6,1.8,4.1,2.4c1.6,0.6,3.3,0.9,5.1,0.9c1.8,0,3.5-0.2,4.9-0.6
				c1.4-0.4,2.6-0.9,3.8-1.5c1-0.6,2-1.3,2.8-2.1c0.7-0.8,1.4-1.6,1.9-2.4h0.2l1.8,5.9c0,0.1,0.1,0.1,0.1,0.1h5c0,0,0.1,0,0.1,0
				c0,0,0-0.1,0-0.1c-0.4-1.6-0.7-3.3-0.9-5.2C1513,61.6,1512.9,59.6,1512.9,57.5z M1506.4,49.6v7c-0.4,0.9-0.8,1.6-1.3,2.3
				c-0.6,0.9-1.5,1.6-2.3,2.2c-0.9,0.6-1.9,1.2-3.2,1.6c-1.3,0.4-2.7,0.6-4.3,0.6c-2.1,0-4-0.6-5.4-1.9c-1.4-1.3-2.1-2.9-2.1-4.8
				c0-1.4,0.4-2.5,1.2-3.4c0.9-1,1.9-1.7,3.1-2.2c1.3-0.5,2.8-0.9,4.4-1.1c1.7-0.2,3.4-0.3,5.2-0.3h2.4
				C1504.8,49.5,1505.6,49.5,1506.4,49.6z"/>
			<path class="st0" d="M1576.1,10l-5.4-2.4c0,0-0.1,0-0.1,0c0,0-0.1,0-0.1,0.1l-31.2,70.5c0,0.1,0,0.1,0.1,0.2l5.4,2.4
				c0,0,0,0,0.1,0c0,0,0,0,0,0c0,0,0.1,0,0.1-0.1l31.2-70.5C1576.1,10.1,1576.1,10,1576.1,10z"/>
			<path class="st0" d="M797.5,171.5c0.3,0,0.6,0,0.9,0.1c1.3,0,2.8,0.1,4.3,0.2l0.5,0c1.4,0.1,2.7,0.2,4,0.2h3.5
				c5.2,0,9.7-0.9,13.4-2.6c3.6-1.7,6.6-3.9,8.9-6.9c2.2-2.8,3.9-6.1,5-9.9c1.1-3.7,1.6-7.6,1.6-11.7c0-4.3-0.6-8.4-1.7-12.2
				c-1.1-3.6-2.8-6.8-5.1-9.5c-2.2-2.6-5.1-4.7-8.7-6.2c-3.5-1.5-7.5-2.2-12.4-2.2h-3.9c-0.7,0-1.4,0-2.1,0c-0.7,0-1.5,0.1-2.2,0.1
				c-0.7,0-1.4,0.1-2.1,0.1c-0.7,0-1.4,0.1-2.1,0.1c-1.3,0.1-2.5,0.2-3.6,0.4c-0.1,0-0.1,0.1-0.1,0.1v59.8c0,0.1,0,0.1,0.1,0.1
				C796,171.4,796.6,171.4,797.5,171.5z M802.7,165.3v-47.7c0.2,0,0.4-0.1,0.7-0.1c0.3,0,0.6,0,0.9-0.1c0.4-0.1,0.8-0.1,1.2-0.1
				c0.4,0,0.8,0,1.2-0.1c0.8-0.1,1.8-0.1,2.6-0.1h2.4c3.9,0,7.1,0.7,9.7,2.1c2.7,1.6,4.7,3.4,6.2,5.6c1.5,2.3,2.6,4.9,3.2,7.7
				c0.6,2.8,0.9,5.6,0.9,8.4c0,3.4-0.3,6.4-1,9.3c-0.7,2.9-1.9,5.6-3.5,8c-1.5,2.2-3.7,4-6.5,5.5c-2.7,1.4-6,2.1-9.9,2.1h-1.6
				c-0.4,0-0.8,0-1.2,0c-0.4,0-0.9-0.1-1.3-0.1c-0.5,0-0.9,0-1.3-0.1c-0.4,0-0.8,0-1.2,0C803.5,165.4,803,165.4,802.7,165.3z"/>
			<path class="st0" d="M878.2,130.2c-1.5-1.2-3.3-2-5.3-2.4c-1.9-0.4-3.9-0.6-5.8-0.6c-6.1,0-10.8,1.9-14,5.7
				c-3.3,3.8-4.9,9.4-4.9,16.8c0,3.3,0.4,6.4,1.1,9.2c0.7,2.6,1.8,4.9,3.4,7.1c1.5,1.9,3.5,3.4,5.9,4.5c2.3,1.1,5.2,1.6,8.6,1.6
				c3,0,5.7-0.4,8.3-1.2c2.6-0.7,4.8-1.8,6.5-3.2c0,0,0.1-0.1,0-0.2l-2.5-5c0,0,0-0.1-0.1-0.1c0,0-0.1,0-0.1,0
				c-1,0.9-2.4,1.7-4.4,2.4c-1.8,0.6-3.8,1-5.8,1c-2.4,0-4.6-0.4-6.4-1.1c-1.6-0.7-3-1.7-4.2-3.1c-1-1.2-1.9-2.9-2.4-4.8
				c-0.5-2.1-0.8-4.2-0.8-6.5h27.3c0.1,0,0.1,0,0.1-0.1c0.3-2.5,0.5-4.5,0.5-6.2c0-3.6-0.5-6.5-1.5-8.8
				C881,133.2,879.7,131.5,878.2,130.2z M855.7,145.1c0.4-4.2,1.6-7.1,3.5-8.9c2-1.8,4.7-2.7,8-2.7c3.1,0,5.4,0.9,6.9,2.7
				c1.6,1.6,2.4,4.6,2.5,8.9H855.7z"/>
			<path class="st0" d="M928.8,171.1v-25.8c0-3.6-0.3-6.5-0.9-8.8c-0.6-2.3-1.5-4.1-2.7-5.5c-1.3-1.5-2.7-2.5-4.5-2.9
				c-1.9-0.5-4-0.8-6.2-0.8c-3.2,0-6.1,0.6-8.4,1.8c-2.3,1.2-4.1,2.6-5.5,4.5h-0.1l-1.3-5.1c0-0.1-0.1-0.1-0.1-0.1h-4.8
				c-0.1,0-0.1,0.1-0.1,0.1v42.7c0,0.1,0.1,0.1,0.1,0.1h6.8c0.1,0,0.1-0.1,0.1-0.1v-29.2c0.7-2.4,2.1-4.5,4.1-6
				c2-1.6,4.5-2.4,7.4-2.4c3.3,0,5.7,1.1,7,3.3c1.2,2.1,1.9,5.5,1.9,9.9v24.4c0,0.1,0.1,0.1,0.1,0.1c0.1,0,0.1,0,0.1-0.1h6.9
				C928.8,171.2,928.8,171.2,928.8,171.1z"/>
			<path class="st0" d="M955.6,166.2c-1.7,0-2.9-0.3-4-0.9c-1-0.5-1.9-1.3-2.5-2.4c-0.6-1-1-2.3-1.3-4.2c-0.3-1.5-0.4-3.4-0.4-5.9
				v-24.4c0-0.1-0.1-0.1-0.1-0.1h-7c-0.1,0-0.1,0.1-0.1,0.1v25.8c0,3.6,0.3,6.5,0.9,8.8c0.6,2.3,1.5,4.1,2.7,5.5
				c1.2,1.4,2.8,2.4,4.5,2.9c1.8,0.5,3.8,0.8,6,0.8c3.6,0,6.4-0.7,8.6-2.2c2.2-1.5,4-3.4,5.3-5.6h0.3l1.7,6.7c0,0.1,0.1,0.1,0.1,0.1
				h4.7c0,0,0.1,0,0.1,0s0-0.1,0-0.1c-0.3-1.7-0.6-3.6-0.7-5.8l0-0.2c-0.1-2.1-0.2-4.1-0.2-6.2v-30.4c0-0.1-0.1-0.1-0.1-0.1h-6.8
				c-0.1,0-0.1,0.1-0.1,0.1v28.6c-0.5,1.3-1.1,2.4-1.8,3.5c-0.7,1.1-1.6,2-2.5,2.9c-0.9,0.8-2,1.5-3.2,2
				C958.6,165.9,957.2,166.2,955.6,166.2z"/>
			<path class="st0" d="M1014.5,171.3c0.1,0,0.1,0,0.1-0.1h6.9c0.1,0,0.1-0.1,0.1-0.1v-25.8c0-3.6-0.3-6.5-0.9-8.8
				c-0.6-2.3-1.5-4.1-2.7-5.5c-1.3-1.5-2.7-2.5-4.5-2.9c-1.9-0.5-4-0.8-6.2-0.8c-3.2,0-6.1,0.6-8.4,1.8c-2.3,1.2-4.1,2.6-5.5,4.5
				h-0.1l-1.3-5.1c0-0.1-0.1-0.1-0.1-0.1h-4.8c-0.1,0-0.1,0.1-0.1,0.1v42.7c0,0.1,0.1,0.1,0.1,0.1h6.8c0.1,0,0.1-0.1,0.1-0.1v-29.2
				c0.7-2.4,2.1-4.5,4.1-6c2-1.6,4.5-2.4,7.4-2.4c3.3,0,5.7,1.1,7,3.3c1.2,2.1,1.9,5.5,1.9,9.9v24.4
				C1014.4,171.3,1014.4,171.3,1014.5,171.3z"/>
			<path class="st0" d="M1035.4,166.2c1.6,2,3.4,3.5,5.6,4.5c2.3,1.1,5,1.6,8.5,1.6c2.7,0,5.2-0.3,7.4-1c2.6-0.7,4.5-1.7,6.1-2.9
				c0,0,0.1-0.1,0-0.2l-2.4-5.2c0,0,0-0.1-0.1-0.1c0,0-0.1,0-0.1,0c-1.1,0.8-2.4,1.5-4,2.1c-1.6,0.6-3.4,0.9-5.5,0.9
				c-2.3,0-4.3-0.5-5.9-1.4c-1.6-0.9-2.9-2.1-3.9-3.6c-1-1.5-1.7-3.2-2.1-5.2c-0.4-2-0.6-4-0.6-6.2c0-5.4,1-9.5,3-12.2
				c2-2.7,5-4.1,9-4.1c1.8,0,3.5,0.2,5.1,0.6c1.7,0.5,3.1,1.1,4.4,1.8c0,0,0.1,0,0.1,0c0,0,0.1,0,0.1-0.1l2-5.9c0-0.1,0-0.1-0.1-0.2
				c-1.6-0.8-3.4-1.4-5.2-1.8c-1.9-0.4-4.3-0.6-7-0.6c-6,0-10.6,2-13.9,5.8c-3.2,3.8-4.8,9.4-4.8,16.7c0,3.5,0.3,6.5,1,9.2
				C1032.9,161.9,1033.9,164.2,1035.4,166.2z"/>
			<path class="st0" d="M1080.7,171.2c0.1,0,0.1-0.1,0.1-0.1v-42.7c0-0.1-0.1-0.1-0.1-0.1h-6.8c-0.1,0-0.1,0.1-0.1,0.1v42.7
				c0,0.1,0.1,0.1,0.1,0.1H1080.7z"/>
			<path class="st0" d="M1077.1,120c1.4,0,2.6-0.4,3.6-1.3c1-0.8,1.5-2,1.5-3.3c0-1.4-0.5-2.6-1.5-3.5c-1.1-1-2.2-1.4-3.6-1.4
				c-1.4,0-2.5,0.5-3.5,1.4c-0.9,1-1.3,2.1-1.3,3.5c0,1.4,0.5,2.5,1.3,3.3C1074.5,119.6,1075.6,120,1077.1,120z"/>
			<path class="st0" d="M1094.5,131.5c-0.1,0-0.1,0.1-0.1,0.2l2.2,5.4c0,0,0,0.1,0.1,0.1c0,0,0.1,0,0.1,0c0.7-0.5,1.6-0.9,2.8-1.3
				c1-0.4,2-0.7,3.3-1c0.3-0.1,0.7-0.1,1-0.2c0.8-0.2,1.6-0.3,2.4-0.4l0.3,0c1-0.1,1.9-0.2,2.8-0.2c3.3,0,5.4,0.6,6.7,1.9
				c1.3,1.3,1.9,3.4,1.9,6.5c0,1.3-0.1,2.8-0.3,4.5c-0.8-0.1-1.5-0.2-2.3-0.2h-2.4c-3.1,0-6,0.2-8.6,0.6c-2.6,0.4-4.8,1.1-6.7,2.1
				c-1.9,1.1-3.4,2.4-4.3,4c-1,1.7-1.5,3.9-1.5,6.4c0,1.9,0.3,3.6,1,5.1c0.7,1.4,1.5,2.6,2.7,3.8c1.3,1.1,2.6,1.8,4.1,2.4
				c1.6,0.6,3.3,0.9,5.1,0.9c1.8,0,3.6-0.2,4.9-0.6c1.4-0.4,2.6-0.9,3.8-1.5c1-0.6,2-1.3,2.8-2.1c0.7-0.8,1.4-1.6,1.9-2.4h0.2
				l1.8,5.9c0,0.1,0.1,0.1,0.1,0.1h5c0,0,0.1,0,0.1,0c0,0,0-0.1,0-0.1c-0.4-1.6-0.7-3.3-0.9-5.2c-0.2-1.9-0.3-3.9-0.3-6
				c0-2.9,0.1-6,0.3-9.2c0.2-3.2,0.3-6.5,0.3-10c0-1.4-0.2-3-0.5-4.6c-0.3-1.4-0.9-2.8-1.9-4.2c-0.9-1.3-2.2-2.3-4.2-3.1
				c-1.8-0.8-4.2-1.2-7.2-1.2c-3.1,0-6.1,0.3-9,0.9C1099.4,129.2,1096.9,130.1,1094.5,131.5z M1117.8,152.1v7.1
				c-0.2,0.6-0.6,1.4-1.3,2.3c-0.6,0.9-1.5,1.6-2.3,2.2c-0.9,0.6-1.9,1.2-3.2,1.6c-1.3,0.4-2.7,0.6-4.3,0.6c-2.2,0-4-0.7-5.4-2
				c-1.4-1.3-2.1-2.9-2.1-4.8c0-1.4,0.4-2.5,1.2-3.4c0.9-1,1.9-1.7,3.1-2.2c1.3-0.5,2.8-0.9,4.4-1.1c1.7-0.2,3.4-0.3,5.2-0.3h2.4
				C1116.2,152,1117,152,1117.8,152.1z"/>
			<path class="st0" d="M1162.5,164.3c0.6-1.6,0.9-3.3,0.9-5.1c0-2.6-0.5-4.6-1.5-6.3c-1-1.6-2.3-2.9-3.8-3.9
				c-1.5-0.9-3.1-1.9-5-2.5c-1.7-0.6-3.5-1.2-5-1.9c-1.7-0.7-3-1.6-3.8-2.2c-1-0.9-1.5-2-1.5-3.4c0-2,0.6-3.4,1.8-4.3
				c1.2-0.9,2.9-1.3,5.4-1.3c2.2,0,4.1,0.2,5.9,0.7c1.7,0.5,3.3,1,4.7,1.7c0,0,0.1,0,0.1,0c0,0,0.1,0,0.1-0.1l1.6-5.6
				c0-0.1,0-0.1-0.1-0.1c-1.8-0.8-3.6-1.5-5.4-1.9c-2.1-0.5-4.8-0.8-7.7-0.8c-4.1,0-7.5,1-9.8,2.9c-2.4,1.9-3.5,5-3.5,9.1
				c0,2.5,0.5,4.6,1.5,6.1c1.1,1.5,2.4,2.8,3.8,3.6c1.3,0.7,3,1.6,5,2.3c1.7,0.6,3.5,1.2,5,1.9c1.5,0.6,2.8,1.4,3.8,2.4
				c1,1,1.5,2.3,1.5,3.9c0,2.5-0.8,4.2-2.3,5.1c-1.5,1-3.6,1.5-6,1.5c-2.2,0-4.3-0.3-6.4-0.9c-2.1-0.7-3.8-1.4-5.1-2.1
				c0,0-0.1,0-0.1,0c0,0-0.1,0-0.1,0.1l-2.1,5.8c0,0.1,0,0.1,0.1,0.2c1.7,0.9,3.7,1.7,5.7,2.2c2.3,0.6,5.1,0.9,8.3,0.9
				c2.6,0,4.7-0.3,6.5-1c1.8-0.7,3.4-1.6,4.7-2.7C1160.9,167.4,1161.9,166,1162.5,164.3z"/>
			<path class="st0" d="M809.5,274.8c3.2,0,6-0.4,8.5-1.2c2.5-0.8,4.7-1.9,6.4-3.4c1.9-1.7,3.2-3.4,4-5.3c0.9-2.1,1.4-4.4,1.4-7
				c0-3.2-0.7-5.8-2.1-8c-1.4-2.1-3.2-3.9-5.3-5.4c-2.6-1.8-4.8-3-7-4c-0.4-0.2-0.9-0.4-1.3-0.6c-2-1-3.9-1.9-5.7-2.9
				c-2.2-1.3-4-2.6-5.3-4c-1.4-1.5-2.1-3.3-2.1-5.5c0-2.2,0.9-4.2,2.8-5.8c1.9-1.7,4.6-2.5,8.4-2.5c3.2,0,6.1,0.3,8.6,0.9
				c2.8,0.6,4.7,1.4,5.8,1.9c0,0,0.1,0,0.1,0s0.1,0,0.1-0.1l2.1-6.3c0-0.1,0-0.1-0.1-0.2c-1.7-0.9-4-1.5-6.7-2
				c-3.1-0.5-6.2-0.8-9.5-0.8c-6,0-10.7,1.4-14,4.1c-3.3,2.7-4.9,6.5-4.9,11.2c0,3.4,0.7,6.2,2.1,8.3c1.3,2,3,3.8,5.3,5.4
				c2.6,1.7,4.8,2.8,7,3.7c2.7,1.1,5,2.2,7,3.3c2.2,1.2,3.9,2.5,5.3,4c1.4,1.6,2.1,3.5,2.1,5.8c0,1.5-0.3,2.9-0.9,4.2
				c-0.7,1.2-1.7,2.3-2.9,3.1c-1.2,0.8-2.6,1.4-4.3,1.8c-1.7,0.4-3.4,0.6-5.3,0.6c-3.3,0-6-0.3-8.6-1c-2.5-0.7-4.5-1.4-5.8-2.1
				c0,0-0.1,0-0.1,0c0,0-0.1,0-0.1,0.1l-2.4,6.3c0,0.1,0,0.1,0.1,0.2c1.4,0.7,3.5,1.4,6.5,2.2C801.6,274.5,805,274.8,809.5,274.8z"
				/>
			<path class="st0" d="M848.2,273.3c2.2,1.1,5,1.6,8.4,1.6c6,0,10.7-2,14-5.8c3.2-3.8,4.8-9.4,4.8-16.7c0-3.2-0.4-6.3-1.1-9.2
				c-0.7-2.6-1.8-4.9-3.4-7.2c-1.7-2-3.6-3.5-5.9-4.5c-2.2-1.1-5-1.6-8.4-1.6c-6,0-10.7,2-14,5.8c-3.2,3.8-4.8,9.4-4.8,16.7
				c0,3.2,0.4,6.3,1.1,9.2c0.7,2.6,1.8,4.9,3.4,7.2C844,270.8,845.9,272.2,848.2,273.3z M845.1,252.4c0-6.4,1.3-11,4-13.6
				c1.8-1.7,4.1-2.6,7.1-2.6c0.1,0,0.3,0,0.4,0c2.2,0,3.9,0.4,5.3,1.3c1.4,0.8,2.6,1.9,3.6,3.5c1,1.6,1.6,3.3,2,5.2
				c0.4,2,0.6,4.1,0.6,6.3c0,6.4-1.3,11-4,13.6c-1.8,1.8-4.3,2.7-7.3,2.7c-0.1,0-0.1,0-0.2,0c-2,0-3.8-0.5-5.3-1.4
				c-1.5-0.9-2.7-2.1-3.6-3.6c-1-1.6-1.6-3.3-2-5.2C845.3,256.6,845.1,254.5,845.1,252.4z"/>
			<path class="st0" d="M893.7,213.8h-6.8c-0.1,0-0.1,0.1-0.1,0.1v51.3c0,3.5,0.8,6,2.5,7.5c1.6,1.5,3.7,2.2,6.4,2.2
				c1.4,0,2.8-0.1,4.2-0.4c1.7-0.3,2.9-0.6,3.8-1.1c0,0,0.1-0.1,0.1-0.1l-0.8-5.4c0,0,0-0.1-0.1-0.1c0,0-0.1,0-0.1,0
				c-1,0.4-2,0.7-2.9,0.8l-0.3,0c-0.8,0.1-1.5,0.2-2.1,0.2c-1.2,0-2.2-0.4-2.8-1.3c-0.7-0.9-1-2.2-1-4.2v-49.4
				C893.8,213.8,893.8,213.8,893.7,213.8z"/>
			<path class="st0" d="M915.8,213.1c-1.4,0-2.5,0.5-3.5,1.4c-0.9,1-1.3,2.1-1.3,3.5c0,1.4,0.5,2.5,1.3,3.3c0.9,0.9,2,1.3,3.5,1.3
				c1.4,0,2.6-0.4,3.6-1.3c1-0.8,1.5-2,1.5-3.3c0-1.4-0.5-2.6-1.5-3.5C918.3,213.5,917.2,213.1,915.8,213.1z"/>
			<path class="st0" d="M919.3,230.9h-6.8c-0.1,0-0.1,0.1-0.1,0.1v42.7c0,0.1,0.1,0.1,0.1,0.1h6.8c0.1,0,0.1-0.1,0.1-0.1V231
				C919.4,230.9,919.4,230.9,919.3,230.9z"/>
			<path class="st0" d="M935.5,268.8c1.6,2,3.4,3.5,5.6,4.5c2.3,1.1,5,1.6,8.5,1.6c2.7,0,5.2-0.3,7.4-1c2.6-0.7,4.5-1.7,6.1-2.9
				c0,0,0.1-0.1,0-0.2l-2.4-5.2c0,0,0-0.1-0.1-0.1c0,0-0.1,0-0.1,0c-1.1,0.8-2.4,1.5-4,2.1c-1.6,0.6-3.4,0.9-5.5,0.9
				c-2.3,0-4.3-0.5-5.9-1.4c-1.6-0.9-2.9-2.1-3.9-3.6c-1-1.5-1.7-3.2-2.1-5.2c-0.4-2-0.6-4-0.6-6.2c0-5.4,1-9.5,3-12.2
				c2-2.7,5-4.1,9-4.1c1.8,0,3.5,0.2,5.1,0.6c1.7,0.5,3.1,1.1,4.4,1.8c0,0,0.1,0,0.1,0c0,0,0.1,0,0.1-0.1l2-5.9c0-0.1,0-0.1-0.1-0.2
				c-1.7-0.8-3.4-1.4-5.2-1.8c-1.9-0.4-4.3-0.6-7-0.6c-6,0-10.6,2-13.9,5.8c-3.2,3.8-4.8,9.4-4.8,16.7c0,3.5,0.3,6.5,1,9.2
				C933,264.5,934,266.8,935.5,268.8z"/>
			<path class="st0" d="M982.3,218c0-1.4-0.5-2.6-1.5-3.5c-1.1-1-2.2-1.4-3.6-1.4c-1.4,0-2.5,0.5-3.5,1.4c-0.9,1-1.3,2.1-1.3,3.5
				c0,1.3,0.5,2.4,1.3,3.3c0.9,0.9,2,1.3,3.5,1.3c1.4,0,2.6-0.4,3.6-1.3C981.8,220.5,982.3,219.3,982.3,218z"/>
			<path class="st0" d="M974,230.9c-0.1,0-0.1,0.1-0.1,0.1v42.7c0,0.1,0.1,0.1,0.1,0.1h6.8c0.1,0,0.1-0.1,0.1-0.1V231
				c0-0.1-0.1-0.1-0.1-0.1H974z"/>
			<path class="st0" d="M1011.9,274.2c1.9-0.5,3.6-1.1,5-1.8c0.1,0,0.1-0.1,0.1-0.1l-1.5-5.2c0,0,0-0.1-0.1-0.1c0,0-0.1,0-0.1,0
				c-1,0.4-2.2,0.8-3.4,1.2c-1.2,0.3-2.4,0.5-3.8,0.5c-1.8,0-3-0.6-3.7-1.7c-0.7-1.2-1.1-3.4-1.1-6.2v-23.6h11.5
				c0.1,0,0.1-0.1,0.1-0.1v-6c0-0.1-0.1-0.1-0.1-0.1h-11.5v-10.4c0,0,0-0.1,0-0.1c0,0-0.1,0-0.1,0l-6.8,2c-0.1,0-0.1,0.1-0.1,0.1
				v8.4h-6.6c-0.1,0-0.1,0.1-0.1,0.1v6c0,0.1,0.1,0.1,0.1,0.1h6.6V262c0,4.9,0.7,8.2,2.1,10c1.6,2,4,2.9,7.5,2.9
				C1008.3,274.9,1010.2,274.7,1011.9,274.2z"/>
			<path class="st0" d="M1023.6,231v25.8c0,3.6,0.3,6.5,0.9,8.8c0.6,2.3,1.5,4.1,2.7,5.5c1.2,1.4,2.8,2.4,4.5,2.9
				c1.8,0.5,3.8,0.8,6,0.8c3.6,0,6.4-0.7,8.6-2.2c2.2-1.5,4-3.4,5.3-5.6h0.2l1.7,6.7c0,0.1,0.1,0.1,0.1,0.1h4.7c0,0,0.1,0,0.1,0
				s0-0.1,0-0.1c-0.3-1.7-0.6-3.6-0.7-5.8l0-0.3c-0.1-2.1-0.2-4.1-0.2-6.1V231c0-0.1-0.1-0.1-0.1-0.1h-6.8c-0.1,0-0.1,0.1-0.1,0.1
				v28.8c-0.5,1.3-1.1,2.4-1.8,3.5c-0.7,1.1-1.6,2-2.5,2.9c-0.9,0.8-2,1.5-3.2,2c-1.1,0.5-2.5,0.7-4.1,0.7c-1.6,0-3-0.3-4-0.9
				c-1-0.5-1.9-1.3-2.5-2.4c-0.6-1-1-2.3-1.3-4.2c-0.3-1.5-0.4-3.4-0.4-5.9V231c0-0.1-0.1-0.1-0.1-0.1h-6.9
				C1023.6,230.9,1023.6,230.9,1023.6,231z"/>
			<path class="st0" d="M1068.2,252.7c0,7.8,1.3,13.3,4.1,16.9c2.9,3.7,7,5.4,12.8,5.4c2.9,0,5.4-0.7,7.7-2c2.3-1.5,4-3.1,5-5h0.1
				l1.7,6c0,0.1,0.1,0.1,0.1,0.1h4.6c0,0,0.1,0,0.1,0c0,0,0-0.1,0-0.1c-0.4-2-0.7-4.1-0.8-7c-0.1-2.4-0.1-4.9-0.1-7.8
				c0.1,0,0.1-0.1,0.1-0.1V214c0-0.1-0.1-0.1-0.1-0.1h-6.8c-0.1,0-0.1,0.1-0.1,0.1v17.6c-1.4-0.5-2.8-0.9-3.9-1
				c-1.2-0.2-2.9-0.3-5-0.3c-6.1,0-10.9,1.9-14.3,5.7C1069.9,239.8,1068.2,245.3,1068.2,252.7z M1075.4,252.5
				c0-5.7,1.1-9.7,3.3-12.3c2.2-2.6,5.2-3.9,9.1-3.9c1.9,0,3.8,0.2,5.2,0.5c1.2,0.3,2.4,0.8,3.4,1.6l0,21.1c-0.6,3-1.7,5.3-3.5,6.8
				c-1.7,1.5-4,2.3-6.8,2.3c-2,0-3.7-0.4-4.9-1.3c-1.4-0.8-2.6-2-3.4-3.4c-0.8-1.4-1.4-3.1-1.8-5.1
				C1075.6,257,1075.4,254.8,1075.4,252.5z"/>
			<path class="st0" d="M1143.9,232.8c-1.5-1.2-3.3-2-5.3-2.4c-1.9-0.4-3.9-0.6-5.8-0.6c-6.1,0-10.8,1.9-14,5.7
				c-3.3,3.8-4.9,9.4-4.9,16.8c0,3.3,0.4,6.4,1.1,9.2c0.7,2.6,1.8,4.9,3.4,7.1c1.5,1.9,3.5,3.4,5.9,4.5c2.3,1.1,5.2,1.6,8.6,1.6
				c3,0,5.7-0.4,8.3-1.2c2.6-0.7,4.8-1.8,6.5-3.2c0,0,0.1-0.1,0-0.2l-2.5-5c0,0,0-0.1-0.1-0.1c0,0-0.1,0-0.1,0
				c-1,0.9-2.4,1.7-4.4,2.4c-1.8,0.6-3.8,1-5.8,1c-2.4,0-4.6-0.4-6.4-1.1c-1.6-0.7-3-1.7-4.2-3.1c-1-1.2-1.9-2.9-2.4-4.8
				c-0.5-2.1-0.8-4.2-0.8-6.5h27.3c0.1,0,0.1,0,0.1-0.1c0.3-2.5,0.5-4.5,0.5-6.2c0-3.6-0.5-6.5-1.5-8.8
				C1146.7,235.8,1145.4,234.1,1143.9,232.8z M1121.4,247.7c0.4-4.2,1.6-7.1,3.5-8.9c2-1.8,4.7-2.7,8-2.7c3.1,0,5.4,0.9,6.9,2.7
				c1.6,1.6,2.4,4.6,2.5,8.9H1121.4z"/>
			<path class="st0" d="M1180.4,251.6c-1.5-0.9-3.1-1.9-5-2.5c-1.7-0.6-3.5-1.2-5-1.9c-1.7-0.7-3-1.6-3.8-2.2c-1-0.9-1.5-2-1.5-3.4
				c0-2,0.6-3.4,1.8-4.3c1.2-0.9,2.9-1.3,5.4-1.3c2.2,0,4.1,0.2,5.9,0.7c1.7,0.5,3.3,1,4.7,1.7c0,0,0.1,0,0.1,0c0,0,0.1,0,0.1-0.1
				l1.6-5.6c0-0.1,0-0.1-0.1-0.1c-1.8-0.8-3.6-1.5-5.4-1.9c-2.1-0.5-4.8-0.8-7.7-0.8c-4.1,0-7.5,1-9.8,2.9c-2.4,1.9-3.5,5-3.5,9.1
				c0,2.5,0.5,4.6,1.5,6.1c1.1,1.5,2.4,2.8,3.8,3.6c1.3,0.7,3,1.6,5,2.3c1.7,0.6,3.5,1.2,5,1.9c1.5,0.6,2.8,1.4,3.8,2.4
				c1,1,1.5,2.3,1.5,3.9c0,2.5-0.8,4.2-2.3,5.1c-1.6,1-3.6,1.5-6,1.5c-2.2,0-4.3-0.3-6.4-0.9c-2.1-0.7-3.8-1.4-5.1-2.1
				c0,0-0.1,0-0.1,0c0,0-0.1,0-0.1,0.1l-2.1,5.8c0,0.1,0,0.1,0.1,0.2c1.7,0.9,3.7,1.7,5.7,2.2c2.3,0.6,5.1,0.9,8.3,0.9
				c2.6,0,4.7-0.3,6.5-1c1.8-0.7,3.4-1.6,4.7-2.7c1.2-1.1,2.2-2.4,2.8-4.2c0.6-1.6,0.9-3.3,0.9-5.1c0-2.6-0.5-4.6-1.5-6.3
				C1183.2,254,1181.9,252.6,1180.4,251.6z"/>
			<path class="st0" d="M821.1,352.7C821.1,352.7,821.1,352.7,821.1,352.7l-3.9-3.1c3.8-1,7-2.9,9.5-5.8c2.5-2.9,3.8-6.8,3.8-11.5
				c0-3.1-0.5-5.7-1.6-7.8c-1.1-2.2-2.6-3.9-4.3-5.1c-1.8-1.3-3.8-2.2-6.2-2.8c-2.4-0.6-4.9-0.9-7.5-0.9c-2.3,0-4.9,0.1-7.7,0.3
				s-5.3,0.5-7.5,0.9h-0.1c-0.1,0-0.1,0.1-0.1,0.1v59.3c0,0.1,0.1,0.1,0.1,0.1h7.1c0.1,0,0.1-0.1,0.1-0.1v-27l8.2,1.3l16.6,25.9
				c0,0,0.1,0.1,0.1,0.1h8.3c0,0,0.1,0,0.1-0.1c0,0,0-0.1,0-0.1L821.1,352.7z M805.4,322.3c0.3,0,0.7-0.1,1.1-0.1
				c0.7-0.1,1.5-0.1,2.3-0.1h2.3c3.7,0,6.5,1,8.6,3.1c2.1,2,3.2,4.5,3.2,7.5c0,4.1-1.3,7.1-3.8,9c-2.5,1.9-5.7,2.9-9.6,2.9h-6.6
				v-21.9c0.3-0.1,0.6-0.1,1-0.2c0.2,0,0.3,0,0.5-0.1C804.7,322.4,805,322.3,805.4,322.3z"/>
			<path class="st0" d="M847.7,371.4c1.5,1.9,3.5,3.4,5.9,4.5c2.3,1.1,5.2,1.6,8.6,1.6c3,0,5.7-0.4,8.3-1.2c2.6-0.7,4.8-1.8,6.5-3.2
				c0,0,0.1-0.1,0-0.2l-2.5-5c0,0,0-0.1-0.1-0.1c0,0-0.1,0-0.1,0c-1,0.9-2.4,1.7-4.4,2.4c-1.8,0.6-3.8,1-5.8,1
				c-2.4,0-4.6-0.4-6.4-1.1c-1.6-0.7-3-1.7-4.2-3.1c-1-1.2-1.9-2.9-2.4-4.8c-0.5-2.1-0.8-4.2-0.8-6.5h27.3c0.1,0,0.1,0,0.1-0.1
				c0.3-2.5,0.5-4.5,0.5-6.2c0-3.6-0.5-6.5-1.5-8.8c-1-2.2-2.3-3.9-3.8-5.1c-1.5-1.2-3.3-2-5.3-2.4c-1.9-0.4-3.9-0.6-5.8-0.6
				c-6.1,0-10.8,1.9-14,5.7c-3.3,3.8-4.9,9.4-4.9,16.8c0,3.3,0.4,6.4,1.1,9.2C844.9,366.8,846,369.2,847.7,371.4z M850.7,350.3
				c0.4-4.2,1.6-7.1,3.5-8.9c2-1.8,4.7-2.7,8-2.7c3.1,0,5.3,0.8,6.9,2.7c1.6,1.6,2.4,4.6,2.5,8.9H850.7z"/>
			<path class="st0" d="M916,368.3C916,368.3,916,368.3,916,368.3c-0.1-0.1-0.2-0.1-0.2,0c-1.1,0.8-2.4,1.5-4,2.1
				c-1.6,0.6-3.4,0.9-5.5,0.9c-2.3,0-4.3-0.5-5.9-1.4c-1.6-0.9-2.9-2.1-3.9-3.6c-1-1.5-1.7-3.2-2.1-5.2c-0.4-2-0.6-4-0.6-6.2
				c0-5.4,1-9.5,3-12.2c2-2.7,5-4.1,9-4.1c1.8,0,3.5,0.2,5.1,0.6c1.7,0.5,3.1,1.1,4.4,1.8c0,0,0.1,0,0.1,0c0,0,0.1,0,0.1-0.1l2-5.9
				c0-0.1,0-0.1-0.1-0.2c-1.6-0.8-3.4-1.4-5.2-1.8c-1.9-0.4-4.3-0.6-7-0.6c-6,0-10.6,2-13.9,5.8c-3.2,3.8-4.8,9.4-4.8,16.7
				c0,3.5,0.3,6.5,1,9.2c0.7,2.9,1.8,5.2,3.2,7.1c1.6,2,3.4,3.5,5.6,4.5c2.3,1.1,5,1.6,8.5,1.6c2.7,0,5.2-0.3,7.4-1
				c2.6-0.7,4.5-1.7,6.1-2.9c0,0,0.1-0.1,0-0.2L916,368.3z"/>
			<path class="st0" d="M961,370.6c-0.1-2.1-0.2-4.1-0.2-6.2v-30.6c0-0.1-0.1-0.1-0.1-0.1h-6.8c-0.1,0-0.1,0.1-0.1,0.1v28.6
				c-0.5,1.3-1.1,2.4-1.8,3.5c-0.7,1.1-1.6,2-2.5,2.9c-0.9,0.8-2,1.5-3.2,2c-1.1,0.5-2.5,0.7-4.1,0.7c-1.6,0-3-0.3-4-0.9
				c-1-0.5-1.9-1.3-2.5-2.4c-0.6-1-1-2.3-1.3-4.2c-0.3-1.5-0.4-3.4-0.4-5.9v-24.4c0-0.1-0.1-0.1-0.1-0.1s-0.1,0.1-0.1,0.1v0.1H927
				c-0.1,0-0.1,0.1-0.1,0.1v25.8c0,3.6,0.3,6.5,0.9,8.8c0.6,2.3,1.5,4.1,2.7,5.5c1.2,1.4,2.8,2.4,4.5,2.9c1.8,0.5,3.8,0.8,6,0.8
				c3.6,0,6.4-0.7,8.6-2.2c2.2-1.5,4-3.4,5.3-5.6h0.2l1.7,6.7c0,0.1,0.1,0.1,0.1,0.1h4.7c0,0,0.1,0,0.1,0s0-0.1,0-0.1
				c-0.3-1.7-0.6-3.6-0.7-5.8L961,370.6z"/>
			<path class="st0" d="M989.1,339.4c1.6,0,3.2,0.3,4.9,0.9c0,0,0.1,0,0.1,0s0.1,0,0.1-0.1l1.5-6.6c0-0.1,0-0.1-0.1-0.1
				c-2.2-0.6-4-0.9-5.6-0.9c-2.5,0-4.4,0.5-5.9,1.6c-1.5,1.1-2.8,2.6-3.9,4.5H980l-1.3-5.1c0-0.1-0.1-0.1-0.1-0.1h-4.8
				c-0.1,0-0.1,0.1-0.1,0.1v42.7c0,0.1,0.1,0.1,0.1,0.1h6.8c0.1,0,0.1-0.1,0.1-0.1l0-29.9c0.4-2.1,1.3-3.8,2.7-5
				C984.8,340.1,986.7,339.4,989.1,339.4z"/>
			<path class="st0" d="M1020.1,376.4c1.8-0.7,3.4-1.6,4.7-2.7c1.2-1.1,2.2-2.4,2.8-4.2c0.6-1.6,0.9-3.3,0.9-5.1
				c0-2.6-0.5-4.6-1.5-6.3c-1-1.6-2.3-2.9-3.8-3.9c-1.7-1.1-3.4-2-5-2.5c-1.7-0.6-3.4-1.2-5-1.9c-1.7-0.7-3-1.6-3.8-2.2
				c-1-0.9-1.5-2-1.5-3.4c0-2,0.6-3.4,1.8-4.3c1.2-0.9,2.9-1.3,5.4-1.3c2.2,0,4.1,0.2,5.9,0.7c1.7,0.5,3.3,1,4.7,1.7
				c0,0,0.1,0,0.1,0c0,0,0.1,0,0.1-0.1l1.6-5.6c0-0.1,0-0.1-0.1-0.1c-1.6-0.8-3.6-1.4-5.4-1.9c-2.1-0.5-4.8-0.8-7.7-0.8
				c-4.1,0-7.5,1-9.8,2.9c-2.4,1.9-3.5,5-3.5,9.1c0,2.5,0.5,4.6,1.5,6.1c1.1,1.5,2.4,2.8,3.8,3.6c1.6,1,3.3,1.7,5,2.3
				c1.7,0.6,3.5,1.2,5,1.9c1.5,0.6,2.8,1.4,3.8,2.4c1,0.9,1.5,2.2,1.5,3.9c0,2.5-0.8,4.2-2.3,5.1c-1.6,1-3.6,1.5-6,1.5
				c-2.2,0-4.3-0.3-6.4-0.9c-2.1-0.7-3.8-1.4-5.1-2.1c0,0-0.1,0-0.1,0c0,0-0.1,0-0.1,0.1l-2.1,5.8c0,0.1,0,0.1,0.1,0.2
				c1.7,0.9,3.7,1.7,5.7,2.2c2.3,0.6,5.1,0.9,8.3,0.9C1016.2,377.4,1018.3,377.1,1020.1,376.4z"/>
			<path class="st0" d="M1069.2,371.7c3.2-3.8,4.8-9.4,4.8-16.7c0-3.2-0.4-6.3-1.1-9.2c-0.7-2.6-1.8-4.9-3.4-7.1
				c-1.7-2-3.6-3.5-5.9-4.5c-2.2-1.1-5-1.6-8.4-1.6c-6,0-10.7,2-14,5.8c-3.2,3.8-4.8,9.4-4.8,16.7c0,3.2,0.4,6.3,1.1,9.2
				c0.7,2.6,1.8,4.9,3.4,7.1c1.7,2,3.6,3.5,5.9,4.5c2.2,1.1,5,1.6,8.4,1.6C1061.2,377.5,1065.9,375.6,1069.2,371.7z M1066.7,355
				c0,6.4-1.3,11-4,13.6c-1.8,1.8-4.4,2.7-7.5,2.7c-2,0-3.8-0.5-5.3-1.4c-1.5-0.9-2.7-2.1-3.6-3.6c-1-1.6-1.6-3.3-2-5.2
				c-0.4-2-0.6-4-0.6-6.2c0-6.4,1.3-11,4-13.6c1.8-1.7,4.1-2.6,7.1-2.6c0.1,0,0.3,0,0.4,0c2.2,0,3.9,0.4,5.3,1.3
				c1.4,0.8,2.6,1.9,3.6,3.5c1,1.6,1.6,3.3,2,5.2C1066.5,350.7,1066.7,352.8,1066.7,355z"/>
			<path class="st0" d="M1106.7,373.7c1.2-1.1,2.2-2.4,2.8-4.2c0.6-1.6,0.9-3.3,0.9-5.1c0-2.6-0.5-4.6-1.5-6.3
				c-1-1.6-2.3-2.9-3.8-3.9c-1.5-0.9-3.1-1.9-5-2.5c-1.7-0.6-3.4-1.2-5-1.9c-1.7-0.7-3-1.6-3.8-2.2c-1-0.9-1.5-2-1.5-3.4
				c0-2,0.6-3.4,1.8-4.3c1.2-0.9,2.9-1.3,5.4-1.3c2.2,0,4.1,0.2,5.9,0.7c1.7,0.5,3.3,1,4.7,1.7c0,0,0.1,0,0.1,0c0,0,0.1,0,0.1-0.1
				l1.6-5.6c0-0.1,0-0.1-0.1-0.1c-1.6-0.8-3.6-1.4-5.4-1.9c-2.1-0.5-4.8-0.8-7.7-0.8c-4.1,0-7.5,1-9.8,2.9c-2.4,1.9-3.5,5-3.5,9.1
				c0,2.5,0.5,4.6,1.5,6.1c1.1,1.5,2.4,2.8,3.8,3.6c1.3,0.7,3,1.6,5,2.3c1.7,0.6,3.5,1.2,5,1.9c1.5,0.6,2.8,1.4,3.8,2.4
				c1,0.9,1.5,2.2,1.5,3.9c0,2.5-0.8,4.2-2.3,5.1c-1.5,1-3.6,1.5-6,1.5c-2.2,0-4.3-0.3-6.4-0.9c-2.1-0.7-3.8-1.4-5.1-2.1
				c0,0-0.1,0-0.1,0c0,0-0.1,0-0.1,0.1l-2.1,5.8c0,0.1,0,0.1,0.1,0.2c1.7,0.9,3.7,1.7,5.7,2.2c2.3,0.6,5.1,0.9,8.3,0.9
				c2.6,0,4.7-0.3,6.5-1C1103.8,375.7,1105.3,374.9,1106.7,373.7z"/>
			<path class="st0" d="M829.4,451.4c-1.2-1.2-2.5-2.1-4.1-2.8c-1.6-0.7-3.2-1.2-4.8-1.5V447c2-0.5,3.6-1.3,4.9-2.2
				c1.5-1.1,2.7-2.2,3.5-3.4c1.1-1.3,1.7-2.8,2.1-4.1c0.5-1.4,0.7-2.9,0.7-4.4c0-3-0.6-5.5-1.8-7.2c-1.3-1.9-2.8-3.3-4.7-4.4
				c-1.9-1-4-1.7-6.3-2.1c-2.3-0.4-4.6-0.6-6.8-0.6c-3.3,0-6.3,0.1-9.1,0.3c-3,0.3-5.4,0.6-7.4,0.9c-0.1,0-0.1,0.1-0.1,0.1v58.9
				c0,0.1,0,0.1,0.1,0.1c0.2,0,0.5,0.1,0.7,0.1c0.9,0.2,2,0.4,3.1,0.5c1.5,0.1,2.9,0.2,4.3,0.3c1.4,0.1,2.8,0.1,4.1,0.1h3.4
				c2.9,0,5.6-0.3,8.2-1c2.6-0.7,5-1.8,7.1-3.2c2.1-1.5,3.8-3.3,5-5.5c1.3-2.3,1.9-4.9,1.9-8.1c0-2.3-0.4-4.3-1.1-6.1
				C831.6,454.2,830.6,452.6,829.4,451.4z M823.1,438c-0.4,1-1.1,2-2.2,3.1c-0.9,0.9-1.9,1.5-3.2,2.3c-1.1,0.7-2.5,1.2-3.8,1.7
				c-0.6,0.1-1.4,0.2-2.3,0.2c-0.4,0-0.7,0-1.1,0.1c-1.3,0.1-2.4,0.1-3.4,0.1v-0.1c0-0.1-0.1-0.1-0.1-0.1h-4.5v-20.1
				c0.7-0.2,1.8-0.3,3.4-0.4c1.6-0.1,3.3-0.1,5.2-0.1c1.5,0,3,0.2,4.7,0.5c1.4,0.3,2.7,0.8,4.1,1.6c1.2,0.7,2.2,1.7,2.9,2.9
				c0.7,1.4,1.1,2.9,1.1,4.6C823.9,435.5,823.6,436.7,823.1,438z M802.8,451.6h7.3c2.1,0,3.9,0.1,5.6,0.4c2,0.3,3.6,0.8,5.1,1.6
				c1.6,0.8,2.8,1.9,3.7,3.3c0.9,1.4,1.4,3.3,1.4,5.5c0,1.9-0.4,3.4-1.2,4.8c-0.7,1.3-1.7,2.5-3.1,3.5c-1.3,1-2.8,1.7-4.5,2.1
				c-1.7,0.4-3.5,0.6-5.3,0.6c-0.7,0-1.5,0-2.3,0.1c-1,0-1.8,0-2.7-0.1c-0.4,0-0.8-0.1-1.2-0.1c-0.4,0-0.8-0.1-1.2-0.1
				c-0.7-0.1-1.2-0.2-1.6-0.3V451.6z"/>
			<path class="st0" d="M878.1,473.1c-0.1-2.1-0.2-4.1-0.2-6.1v-30.6c0-0.1-0.1-0.1-0.1-0.1H871c-0.1,0-0.1,0.1-0.1,0.1V465
				c-0.5,1.3-1.1,2.4-1.8,3.5c-0.8,1.3-1.8,2.3-2.5,2.9c-0.9,0.8-2,1.5-3.2,2c-1.1,0.5-2.5,0.7-4.1,0.7c-1.6,0-2.9-0.3-4-0.9
				c-1-0.5-1.9-1.3-2.5-2.4c-0.6-1-1-2.3-1.3-4.2c-0.3-1.5-0.4-3.4-0.4-5.9v-24.4c0-0.1-0.1-0.1-0.1-0.1s-0.1,0.1-0.1,0.1v0.1h-6.8
				c-0.1,0-0.1,0.1-0.1,0.1v25.8c0,3.6,0.3,6.5,0.9,8.8c0.6,2.3,1.5,4.1,2.7,5.5c1.2,1.4,2.8,2.4,4.5,2.9c1.8,0.5,3.8,0.8,6,0.8
				c3.6,0,6.4-0.7,8.6-2.2c2.2-1.5,4-3.4,5.3-5.6h0.2l1.7,6.7c0,0.1,0.1,0.1,0.1,0.1h4.7c0,0,0.1,0,0.1,0s0-0.1,0-0.1
				c-0.3-1.7-0.6-3.6-0.7-5.8L878.1,473.1z"/>
			<path class="st0" d="M911.3,456.8c-1.7-1.1-3.4-2-5-2.5c-1.7-0.6-3.5-1.2-5-1.9c-1.7-0.7-3-1.6-3.8-2.2c-1-0.9-1.5-2-1.5-3.4
				c0-2,0.6-3.4,1.8-4.3c1.2-0.9,2.9-1.3,5.4-1.3c2.2,0,4.1,0.2,5.9,0.7c1.7,0.5,3.3,1,4.7,1.7c0,0,0.1,0,0.1,0c0,0,0.1,0,0.1-0.1
				l1.6-5.6c0-0.1,0-0.1-0.1-0.1c-1.8-0.8-3.6-1.5-5.4-1.9c-2.1-0.5-4.8-0.8-7.7-0.8c-4.1,0-7.5,1-9.8,2.9c-2.4,1.9-3.5,5-3.5,9.1
				c0,2.5,0.5,4.6,1.5,6.1c1,1.5,2.3,2.7,3.8,3.6c1.6,1,3.3,1.7,5,2.3c1.7,0.6,3.4,1.2,5,1.9c1.5,0.6,2.8,1.4,3.8,2.4
				c1,1,1.5,2.3,1.5,3.9c0,2.5-0.8,4.2-2.3,5.1c-1.6,1-3.6,1.5-6,1.5c-2.2,0-4.3-0.3-6.4-0.9c-2.1-0.7-3.8-1.4-5.1-2.1
				c0,0-0.1,0-0.1,0c0,0-0.1,0-0.1,0.1l-2.1,5.8c0,0.1,0,0.1,0.1,0.2c1.7,0.9,3.7,1.7,5.7,2.2c2.3,0.6,5.1,0.9,8.3,0.9
				c2.6,0,4.7-0.3,6.5-1c1.8-0.7,3.4-1.6,4.7-2.7c1.2-1.1,2.2-2.5,2.8-4.2c0.6-1.6,0.9-3.3,0.9-5.1c0-2.6-0.5-4.6-1.5-6.3
				C914.1,459.2,912.8,457.8,911.3,456.8z"/>
			<path class="st0" d="M953.7,470.9C953.7,470.9,953.7,470.9,953.7,470.9c-0.1-0.1-0.2-0.1-0.2,0c-1.1,0.8-2.4,1.5-4,2.1
				c-1.6,0.6-3.4,0.9-5.5,0.9c-2.3,0-4.3-0.5-5.9-1.4c-1.6-0.9-2.9-2.1-3.9-3.6c-1-1.5-1.7-3.2-2.1-5.2c-0.4-2-0.6-4-0.6-6.2
				c0-10.8,4-16.3,12-16.3c1.8,0,3.5,0.2,5.1,0.6c1.7,0.5,3.1,1.1,4.4,1.8c0,0,0.1,0,0.1,0s0.1,0,0.1-0.1l2-5.9c0-0.1,0-0.1-0.1-0.2
				c-1.7-0.8-3.4-1.4-5.2-1.8c-1.9-0.4-4.3-0.6-7-0.6c-6,0-10.6,2-13.9,5.8c-3.2,3.8-4.8,9.4-4.8,16.7c0,3.5,0.3,6.5,1,9.2
				c0.7,2.9,1.8,5.2,3.2,7.1c1.6,2,3.4,3.5,5.6,4.5c2.3,1.1,5,1.6,8.5,1.6c2.7,0,5.2-0.3,7.4-1c2.6-0.7,4.5-1.7,6.1-2.9
				c0,0,0.1-0.1,0-0.2L953.7,470.9z"/>
			<path class="st0" d="M994.5,467.9c0-2.9,0.1-6,0.3-9.2c0.2-3.2,0.3-6.5,0.3-10c0-1.4-0.2-3-0.5-4.6c-0.3-1.4-0.9-2.8-1.9-4.2
				c-0.9-1.3-2.2-2.3-4.2-3.1c-1.8-0.8-4.2-1.2-7.2-1.2c-3.1,0-6.1,0.3-9,0.9c-2.8,0.6-5.3,1.5-7.6,2.9c-0.1,0-0.1,0.1-0.1,0.2
				l2.2,5.4c0,0,0,0.1,0.1,0.1c0,0,0.1,0,0.1,0c0.7-0.5,1.6-0.9,2.8-1.3c1-0.4,2.1-0.8,3.3-1c0.5-0.1,0.9-0.2,1.3-0.3
				c0.7-0.1,1.4-0.3,2.1-0.3l0.2,0c1-0.1,1.9-0.2,2.8-0.2c3.3,0,5.4,0.6,6.7,1.9c1.3,1.3,1.9,3.4,1.9,6.5c0,1.3-0.1,2.8-0.3,4.5
				c-0.8-0.1-1.5-0.2-2.3-0.2h-2.4c-3.1,0-6,0.2-8.6,0.6c-2.7,0.4-5,1.1-6.7,2.1c-1.9,1.1-3.4,2.4-4.3,4c-1,1.7-1.5,3.9-1.5,6.4
				c0,1.9,0.3,3.6,1,5.1c0.7,1.4,1.5,2.6,2.7,3.8c1.3,1.1,2.6,1.8,4.1,2.4c1.6,0.6,3.3,0.9,5.1,0.9c1.8,0,3.5-0.2,4.9-0.6
				c1.4-0.4,2.6-0.9,3.8-1.5c1-0.6,2-1.3,2.8-2.1c0.7-0.8,1.4-1.6,1.9-2.4h0.2l1.8,5.9c0,0.1,0.1,0.1,0.1,0.1h5c0,0,0.1,0,0.1,0
				s0-0.1,0-0.1c-0.4-1.6-0.7-3.3-0.9-5.2C994.6,472,994.5,470,994.5,467.9z M987.9,460v7c-0.4,0.9-0.8,1.6-1.3,2.2
				c-0.6,0.9-1.5,1.6-2.3,2.2c-0.9,0.6-1.9,1.2-3.2,1.6c-1.3,0.4-2.7,0.6-4.3,0.6c-2.1,0-3.8-0.6-5.4-1.9c-1.4-1.3-2.1-2.9-2.1-4.8
				c0-1.4,0.4-2.5,1.2-3.4c0.9-1,1.9-1.7,3.1-2.2c1.3-0.5,2.8-0.9,4.4-1.1c1.7-0.2,3.4-0.3,5.2-0.3h2.4
				C986.3,459.9,987.1,459.9,987.9,460z"/>
			<path class="st0" d="M1040.8,464.4c0.1,0,0.1-0.1,0.1-0.1v-45.1c0-0.1-0.1-0.1-0.1-0.1h-6.8c-0.1,0-0.1,0.1-0.1,0.1v17.6
				c-1.5-0.5-2.7-0.9-3.9-1c-1.2-0.2-2.9-0.3-5-0.3c-6.1,0-10.9,1.9-14.3,5.7c-3.5,3.8-5.2,9.3-5.2,16.7c0,7.8,1.3,13.3,4.1,16.9
				c2.9,3.7,7,5.4,12.8,5.4c2.9,0,5.4-0.7,7.7-2c2.3-1.5,4-3.1,5-5h0.1l1.7,6c0,0.1,0.1,0.1,0.1,0.1h4.6c0,0,0.1,0,0.1,0
				c0,0,0-0.1,0-0.1c-0.4-2-0.7-4.1-0.8-7C1040.8,469.8,1040.8,467.3,1040.8,464.4z M1033.7,464.8c-0.6,3-1.7,5.3-3.5,6.8
				c-1.7,1.5-4,2.3-6.8,2.3c-1.8,0-3.4-0.4-4.9-1.3c-1.3-0.7-2.4-1.8-3.4-3.4c-0.8-1.4-1.4-3.1-1.8-5.1c-0.4-2-0.6-4.2-0.6-6.5
				c0-5.7,1.1-9.7,3.3-12.3c2.2-2.6,5.2-3.9,9.1-3.9c2,0,3.7,0.2,5.2,0.5c1.2,0.3,2.4,0.8,3.4,1.6L1033.7,464.8z"/>
			<path class="st0" d="M1084.5,441.2c-1.7-2-3.6-3.5-5.9-4.5c-2.2-1.1-5-1.6-8.4-1.6c-6,0-10.7,2-14,5.8c-3.2,3.8-4.8,9.4-4.8,16.7
				c0,3.7,0.4,6.6,1.1,9.2c0.7,2.9,1.9,5.3,3.4,7.2c1.7,2,3.6,3.5,5.9,4.5c2.2,1.1,5,1.6,8.4,1.6c6,0,10.7-2,14-5.8
				c3.2-3.8,4.8-9.4,4.8-16.7c0-3.2-0.4-6.3-1.1-9.2C1087.3,445.8,1086.2,443.4,1084.5,441.2z M1081.7,457.6c0,6.4-1.3,11-4,13.6
				c-1.8,1.8-4.3,2.7-7.3,2.7c-0.1,0-0.1,0-0.2,0c-2,0-3.8-0.5-5.3-1.4c-1.5-0.9-2.7-2.1-3.6-3.6c-1-1.6-1.6-3.3-2-5.2
				c-0.4-2-0.6-4-0.6-6.2c0-6.5,1.3-11,4-13.6c1.8-1.7,4.1-2.6,7.1-2.6c0.1,0,0.3,0,0.4,0c1.9,0,3.7,0.4,5.3,1.3
				c1.4,0.8,2.6,1.9,3.6,3.5c1,1.6,1.6,3.3,2,5.2C1081.5,453.3,1081.7,455.4,1081.7,457.6z"/>
			<path class="st0" d="M1121.4,436.2c-2.2-0.6-4-0.9-5.6-0.9c-2.5,0-4.4,0.5-5.9,1.6c-1.5,1.1-2.8,2.6-3.9,4.5h-0.1l-1.3-5.1
				c0-0.1-0.1-0.1-0.1-0.1h-4.8c-0.1,0-0.1,0.1-0.1,0.1V479c0,0.1,0.1,0.1,0.1,0.1h6.8c0.1,0,0.1-0.1,0.1-0.1l0-30
				c0.4-2.1,1.3-3.8,2.7-5c1.4-1.3,3.3-2,5.7-2c1.6,0,3.2,0.3,4.9,0.9c0,0,0.1,0,0.1,0c0,0,0.1,0,0.1-0.1l1.5-6.5
				C1121.5,436.3,1121.5,436.2,1121.4,436.2z"/>
		</g>
		<path class="st0" d="M751.6,48.9h-27.9c-0.6,0-1-0.5-1-1V20c0-0.6,0.5-1,1-1h27.9c0.6,0,1,0.5,1,1v27.9
			C752.6,48.5,752.2,48.9,751.6,48.9z"/>
		<path class="st0" d="M751.6,248.5h-27.9c-0.6,0-1-0.5-1-1v-27.9c0-0.6,0.5-1,1-1h27.9c0.6,0,1,0.5,1,1v27.9
			C752.6,248,752.2,248.5,751.6,248.5z"/>
		<path class="st0" d="M751.6,348.7h-27.9c-0.6,0-1-0.5-1-1v-27.9c0-0.6,0.5-1,1-1h27.9c0.6,0,1,0.5,1,1v27.9
			C752.6,348.2,752.2,348.7,751.6,348.7z"/>
		<path class="st0" d="M751.6,454.4h-27.9c-0.6,0-1-0.5-1-1v-27.9c0-0.6,0.5-1,1-1h27.9c0.6,0,1,0.5,1,1v27.9
			C752.6,453.9,752.2,454.4,751.6,454.4z"/>
		<g>
			<path class="st0" d="M39.6,371.3c2,0,3.5,0.5,4.6,1.5c1,1,1.5,2.5,1.5,4.3c0,1.9-0.5,3.3-1.5,4.4c-1,1-2.6,1.6-4.6,1.5h-6.1v8.1
				h-2.7v-19.9h8.8V371.3z M38.7,380.8c1.5,0,2.6-0.3,3.3-0.9s1-1.5,1-2.7s-0.3-2.1-1-2.7s-1.8-0.9-3.3-0.9h-5.2v7.3L38.7,380.8
				L38.7,380.8z"/>
			<path class="st0" d="M60.2,371.3V389h10.5v2.2H57.5v-19.9L60.2,371.3L60.2,371.3z"/>
			<path class="st0" d="M90,371.3l7.8,19.9h-2.9l-2.2-6h-8.4l-2.2,6h-2.7l7.8-19.9H90z M91.8,383l-3.3-9.3h-0.1L85,383H91.8z"/>
			<path class="st0" d="M106.2,373.5v-2.2h15.9v2.2h-6.6v17.7h-2.7v-17.7H106.2z"/>
			<path class="st0" d="M141.2,371.3l7.8,19.9h-2.9l-2.2-6h-8.4l-2.2,6h-2.7l7.8-19.9H141.2z M143.1,383l-3.3-9.3h-0.1l-3.4,9.3
				H143.1z"/>
			<path class="st0" d="M172.6,371.3v2.2h-10.4v6.3h9.1v2.2h-9.1v9.1h-2.7v-19.9L172.6,371.3L172.6,371.3z"/>
			<path class="st0" d="M183.6,377.3c0.4-1.3,1-2.4,1.8-3.3c0.8-1,1.8-1.7,3-2.3c1.2-0.6,2.6-0.9,4.2-0.9c1.6,0,3,0.3,4.2,0.9
				s2.2,1.3,3,2.3s1.4,2.1,1.8,3.3c0.4,1.3,0.6,2.6,0.6,3.9c0,1.4-0.2,2.7-0.6,3.9c-0.4,1.3-1,2.4-1.8,3.3c-0.8,1-1.8,1.7-3,2.3
				c-1.2,0.6-2.6,0.9-4.2,0.9c-1.6,0-3-0.3-4.2-0.9s-2.2-1.3-3-2.3s-1.4-2.1-1.8-3.3c-0.4-1.3-0.6-2.6-0.6-3.9
				S183.2,378.6,183.6,377.3z M186.1,384.2c0.3,1,0.7,1.9,1.2,2.6c0.6,0.8,1.3,1.4,2.1,1.9c0.9,0.5,1.9,0.7,3.1,0.7
				c1.2,0,2.2-0.2,3.1-0.7c0.9-0.5,1.6-1.1,2.1-1.9c0.6-0.8,1-1.7,1.2-2.6c0.3-1,0.4-2,0.4-3s-0.1-2-0.4-3c-0.3-1-0.7-1.9-1.2-2.6
				c-0.6-0.8-1.3-1.4-2.1-1.9c-0.9-0.5-1.9-0.7-3.1-0.7c-1.2,0-2.2,0.2-3.1,0.7c-0.9,0.5-1.6,1.1-2.1,1.9c-0.6,0.8-1,1.7-1.2,2.6
				c-0.3,1-0.4,2-0.4,3C185.7,382.2,185.8,383.2,186.1,384.2z"/>
			<path class="st0" d="M223.3,371.3c1.9,0,3.4,0.5,4.4,1.4c1.1,0.9,1.6,2.2,1.6,3.8c0,1.2-0.3,2.3-0.8,3.2
				c-0.5,0.9-1.4,1.5-2.6,1.9v0.1c0.6,0.1,1,0.3,1.4,0.6c0.4,0.3,0.7,0.6,0.9,0.9c0.2,0.4,0.4,0.8,0.5,1.2c0.1,0.4,0.2,0.9,0.2,1.4
				s0.1,1,0.1,1.5s0.1,1,0.1,1.5c0.1,0.5,0.2,0.9,0.3,1.4c0.1,0.4,0.4,0.8,0.6,1.2h-3c-0.2-0.2-0.3-0.5-0.4-0.8
				c-0.1-0.4-0.1-0.7-0.1-1.2c0-0.4,0-0.9-0.1-1.4c0-0.5-0.1-1-0.2-1.5c-0.1-0.5-0.2-0.9-0.3-1.4c-0.1-0.4-0.3-0.8-0.5-1.1
				c-0.2-0.3-0.6-0.6-0.9-0.8c-0.4-0.2-0.9-0.3-1.6-0.3h-6.5v8.5h-2.7v-19.9h9.6V371.3z M223.9,380.3c0.6-0.1,1-0.3,1.5-0.5
				c0.4-0.3,0.8-0.6,1-1.1s0.4-1,0.4-1.8c0-1-0.3-1.8-0.8-2.5c-0.6-0.6-1.5-1-2.7-1h-6.6v6.9h5.5
				C222.7,380.5,223.3,380.4,223.9,380.3z"/>
			<path class="st0" d="M245.3,371.3l6.3,16.7l6.3-16.7h3.6v19.9H259v-16.6h-0.1l-6.2,16.6h-2.3l-6.2-16.6h-0.1v16.6h-2.5v-19.9
				H245.3z"/>
			<path class="st0" d="M282.8,371.3l7.8,19.9h-2.9l-2.2-6h-8.4l-2.2,6h-2.7l7.8-19.9H282.8z M284.7,383l-3.3-9.3h-0.1l-3.4,9.3
				H284.7z"/>
			<path class="st0" d="M328.5,371.3l10.5,16.1h0.1v-16.1h2.5v19.9h-2.9l-10.4-16h-0.1v16h-2.5v-19.9H328.5z"/>
			<path class="st0" d="M362.7,371.3l7.8,19.9h-2.9l-2.2-6H357l-2.2,6h-2.7l7.8-19.9H362.7z M364.6,383l-3.3-9.3h-0.1l-3.4,9.3
				H364.6z"/>
			<path class="st0" d="M393.1,374.1c-1-0.7-2.2-1.1-3.6-1.1c-1.2,0-2.2,0.2-3.1,0.7c-0.8,0.4-1.5,1-2.1,1.8c-0.5,0.8-1,1.6-1.2,2.6
				c-0.3,1-0.4,2-0.4,3c0,1.1,0.1,2.2,0.4,3.2s0.7,1.9,1.2,2.6c0.5,0.8,1.3,1.4,2.1,1.8c0.9,0.4,1.9,0.7,3.1,0.7
				c0.9,0,1.6-0.1,2.3-0.4c0.7-0.3,1.3-0.7,1.8-1.2s0.9-1.1,1.2-1.8c0.3-0.7,0.4-1.5,0.5-2.3h2.7c-0.3,2.5-1.1,4.5-2.6,5.9
				s-3.5,2.1-6,2.1c-1.5,0-2.9-0.3-4-0.8c-1.2-0.5-2.1-1.3-2.9-2.2c-0.8-0.9-1.3-2-1.7-3.3c-0.4-1.3-0.6-2.6-0.6-4.1
				c0-1.4,0.2-2.8,0.6-4.1c0.4-1.3,1-2.4,1.8-3.3s1.8-1.7,3-2.2s2.5-0.8,4.1-0.8c1,0,2,0.1,3,0.4c0.9,0.3,1.8,0.7,2.5,1.2
				s1.3,1.2,1.8,2s0.8,1.7,0.9,2.8h-2.6C394.8,375.9,394.1,374.8,393.1,374.1z"/>
			<path class="st0" d="M412.5,371.3v19.9h-2.6v-19.9H412.5z"/>
			<path class="st0" d="M425.1,377.3c0.4-1.3,1-2.4,1.8-3.3c0.8-1,1.8-1.7,3-2.3c1.2-0.6,2.6-0.9,4.2-0.9s3,0.3,4.2,0.9
				s2.2,1.3,3,2.3s1.4,2.1,1.8,3.3c0.4,1.3,0.6,2.6,0.6,3.9c0,1.4-0.2,2.7-0.6,3.9c-0.4,1.3-1,2.4-1.8,3.3c-0.8,1-1.8,1.7-3,2.3
				c-1.2,0.6-2.6,0.9-4.2,0.9s-3-0.3-4.2-0.9s-2.2-1.3-3-2.3s-1.4-2.1-1.8-3.3c-0.4-1.3-0.6-2.6-0.6-3.9S424.7,378.6,425.1,377.3z
				 M427.5,384.2c0.3,1,0.7,1.9,1.2,2.6c0.6,0.8,1.3,1.4,2.1,1.9c0.9,0.5,1.9,0.7,3.1,0.7s2.2-0.2,3.1-0.7s1.6-1.1,2.1-1.9
				c0.6-0.8,1-1.7,1.2-2.6c0.3-1,0.4-2,0.4-3s-0.1-2-0.4-3s-0.7-1.9-1.2-2.6c-0.6-0.8-1.3-1.4-2.1-1.9c-0.9-0.5-1.9-0.7-3.1-0.7
				s-2.2,0.2-3.1,0.7s-1.6,1.1-2.1,1.9c-0.6,0.8-1,1.7-1.2,2.6c-0.3,1-0.4,2-0.4,3S427.3,383.2,427.5,384.2z"/>
			<path class="st0" d="M458.2,371.3l10.5,16.1h0.1v-16.1h2.5v19.9h-2.9l-10.4-16h-0.1v16h-2.5v-19.9H458.2z"/>
			<path class="st0" d="M492.4,371.3l7.8,19.9h-2.9l-2.2-6h-8.4l-2.2,6h-2.7l7.8-19.9H492.4z M494.3,383l-3.3-9.3h-0.1l-3.4,9.3
				H494.3z"/>
			<path class="st0" d="M513.4,371.3V389H524v2.2h-13.2v-19.9L513.4,371.3L513.4,371.3z"/>
			<path class="st0" d="M566.2,371.3c3.1,0,5.4,0.8,7.1,2.3c1.7,1.6,2.5,3.9,2.5,7.1c0,1.7-0.2,3.2-0.6,4.4
				c-0.4,1.3-0.9,2.4-1.7,3.3s-1.8,1.6-3,2c-1.2,0.5-2.6,0.7-4.3,0.7h-6.8v-19.9h6.8V371.3z M566.4,389c0.3,0,0.7,0,1.1-0.1
				c0.4,0,0.9-0.2,1.4-0.3c0.5-0.2,1-0.4,1.5-0.8c0.5-0.3,0.9-0.8,1.3-1.4c0.4-0.6,0.7-1.3,1-2.2c0.3-0.9,0.4-1.9,0.4-3.1
				s-0.1-2.3-0.3-3.2c-0.2-0.9-0.6-1.7-1.1-2.4c-0.5-0.7-1.2-1.2-2-1.5s-1.9-0.5-3.1-0.5H562V389H566.4z"/>
			<path class="st0" d="M601.3,371.3v2.2h-11.1v6.3h10.3v2.2h-10.3v6.9h11.2v2.2h-13.8v-19.9L601.3,371.3L601.3,371.3z"/>
			<path class="st0" d="M71.8,412.4v-4.5h20.1v4.5h-7.3v20h-5.4v-20H71.8z"/>
			<path class="st0" d="M123.4,407.9c1.1,0,2.1,0.2,3,0.5c0.9,0.4,1.6,0.8,2.3,1.5c0.6,0.6,1.1,1.3,1.4,2.1c0.3,0.8,0.5,1.7,0.5,2.6
				c0,1.4-0.3,2.7-0.9,3.7c-0.6,1.1-1.6,1.9-3,2.4v0.1c0.7,0.2,1.2,0.5,1.6,0.8c0.4,0.4,0.8,0.8,1.1,1.3s0.5,1.1,0.6,1.7
				s0.2,1.2,0.3,1.9c0,0.4,0,0.8,0.1,1.4c0,0.5,0.1,1.1,0.1,1.6c0.1,0.5,0.1,1.1,0.3,1.6c0.1,0.5,0.3,0.9,0.6,1.3H126
				c-0.3-0.8-0.5-1.7-0.5-2.8c-0.1-1.1-0.2-2.1-0.3-3.1c-0.2-1.3-0.6-2.2-1.2-2.8c-0.6-0.6-1.6-0.9-2.9-0.9h-5.4v9.6h-5.4v-24.5
				L123.4,407.9L123.4,407.9z M121.4,419c1.2,0,2.2-0.3,2.8-0.8c0.6-0.6,0.9-1.4,0.9-2.7c0-1.2-0.3-2.1-0.9-2.6s-1.5-0.8-2.8-0.8
				h-5.9v6.9H121.4z"/>
			<path class="st0" d="M162.6,407.9l9.2,24.5h-5.6l-1.9-5.5h-9.2l-1.9,5.5h-5.4l9.3-24.5H162.6z M162.9,422.9l-3.1-9h-0.1l-3.2,9
				H162.9z"/>
			<path class="st0" d="M194.7,407.9l10.2,16.4h0.1v-16.4h5v24.5h-5.4L194.4,416h-0.1v16.4h-5v-24.5H194.7z"/>
			<path class="st0" d="M234.3,426.3c0.3,0.6,0.7,1,1.2,1.4s1.1,0.6,1.7,0.8c0.7,0.2,1.4,0.3,2.1,0.3c0.5,0,1,0,1.5-0.1
				s1.1-0.2,1.5-0.5c0.5-0.2,0.9-0.5,1.2-0.9s0.5-0.9,0.5-1.5c0-0.7-0.2-1.2-0.6-1.6c-0.4-0.4-1-0.8-1.7-1c-0.7-0.3-1.5-0.5-2.3-0.7
				c-0.9-0.2-1.8-0.4-2.6-0.7c-0.9-0.2-1.8-0.5-2.7-0.8s-1.6-0.8-2.3-1.3s-1.2-1.2-1.7-2c-0.4-0.8-0.6-1.7-0.6-2.9
				c0-1.3,0.3-2.4,0.8-3.3s1.2-1.7,2.1-2.3c0.9-0.6,1.9-1.1,3-1.4s2.2-0.4,3.3-0.4c1.3,0,2.5,0.1,3.7,0.4s2.2,0.7,3.1,1.4
				c0.9,0.6,1.6,1.5,2.2,2.5c0.5,1,0.8,2.2,0.8,3.6h-5.2c0-0.7-0.2-1.3-0.5-1.8s-0.6-0.9-1-1.1c-0.4-0.3-0.9-0.5-1.5-0.6
				s-1.2-0.2-1.8-0.2c-0.4,0-0.9,0-1.3,0.1c-0.4,0.1-0.8,0.3-1.2,0.5s-0.6,0.5-0.9,0.9c-0.2,0.3-0.3,0.8-0.3,1.3s0.1,0.9,0.3,1.2
				c0.2,0.3,0.5,0.6,1.1,0.8c0.5,0.3,1.3,0.5,2.2,0.8s2.2,0.6,3.7,1c0.5,0.1,1.1,0.3,1.9,0.5c0.8,0.2,1.6,0.6,2.4,1.2
				c0.8,0.5,1.5,1.2,2.1,2.1s0.9,2,0.9,3.4c0,1.1-0.2,2.2-0.7,3.1c-0.4,1-1.1,1.8-1.9,2.5c-0.9,0.7-1.9,1.2-3.2,1.6
				s-2.7,0.6-4.4,0.6c-1.4,0-2.7-0.2-3.9-0.5c-1.3-0.3-2.4-0.9-3.4-1.6s-1.7-1.6-2.3-2.7s-0.8-2.4-0.8-3.9h5.2
				C233.9,425.1,234,425.8,234.3,426.3z"/>
			<path class="st0" d="M279,407.9c1.5,0,2.8,0.2,3.9,0.7c1.1,0.4,1.9,1,2.6,1.8c0.7,0.7,1.2,1.6,1.5,2.5s0.5,1.9,0.5,2.9
				s-0.2,2-0.5,2.9c-0.3,1-0.8,1.8-1.5,2.5s-1.6,1.3-2.6,1.8c-1.1,0.4-2.4,0.7-3.9,0.7h-5.7v8.8h-5.4V408L279,407.9L279,407.9z
				 M277.5,419.4c0.6,0,1.2,0,1.8-0.1c0.6-0.1,1.1-0.3,1.5-0.5c0.4-0.3,0.8-0.6,1-1.1c0.3-0.5,0.4-1.1,0.4-1.9s-0.1-1.4-0.4-1.9
				s-0.6-0.9-1-1.1c-0.4-0.3-0.9-0.4-1.5-0.5s-1.2-0.1-1.8-0.1h-4.2v7.3L277.5,419.4L277.5,419.4z"/>
			<path class="st0" d="M318.5,407.9l9.2,24.5h-5.6l-1.9-5.5H311l-1.9,5.5h-5.4l9.3-24.5H318.5z M318.8,422.9l-3.1-9h-0.1l-3.2,9
				H318.8z"/>
			<path class="st0" d="M358.4,407.9c1.1,0,2.1,0.2,3,0.5c0.9,0.4,1.6,0.8,2.3,1.5c0.6,0.6,1.1,1.3,1.4,2.1c0.3,0.8,0.5,1.7,0.5,2.6
				c0,1.4-0.3,2.7-0.9,3.7c-0.6,1.1-1.6,1.9-3,2.4v0.1c0.7,0.2,1.2,0.5,1.6,0.8c0.4,0.4,0.8,0.8,1.1,1.3c0.3,0.5,0.5,1.1,0.6,1.7
				s0.2,1.2,0.3,1.9c0,0.4,0,0.8,0.1,1.4c0,0.5,0.1,1.1,0.1,1.6c0.1,0.5,0.1,1.1,0.3,1.6c0.1,0.5,0.3,0.9,0.6,1.3H361
				c-0.3-0.8-0.5-1.7-0.5-2.8c-0.1-1.1-0.2-2.1-0.3-3.1c-0.2-1.3-0.6-2.2-1.2-2.8c-0.6-0.6-1.6-0.9-2.9-0.9h-5.4v9.6h-5.4v-24.5
				L358.4,407.9L358.4,407.9z M356.5,419c1.2,0,2.2-0.3,2.8-0.8c0.6-0.6,0.9-1.4,0.9-2.7c0-1.2-0.3-2.1-0.9-2.6s-1.5-0.8-2.8-0.8
				h-5.9v6.9H356.5z"/>
			<path class="st0" d="M403.8,407.9v4.5h-12.9v5.2h11.9v4.2h-11.9v6h13.2v4.5h-18.6v-24.5L403.8,407.9L403.8,407.9z"/>
			<path class="st0" d="M428.5,407.9l10.2,16.4h0.1v-16.4h5v24.5h-5.4L428.3,416h-0.1v16.4h-5v-24.5H428.5z"/>
			<path class="st0" d="M479.7,414.4c-0.3-0.5-0.7-1-1.2-1.4s-1-0.7-1.6-0.9c-0.6-0.2-1.2-0.3-1.9-0.3c-1.2,0-2.2,0.2-3.1,0.7
				c-0.8,0.5-1.5,1.1-2.1,1.9c-0.5,0.8-0.9,1.7-1.2,2.7c-0.2,1-0.4,2-0.4,3.1c0,1,0.1,2,0.4,3c0.2,1,0.6,1.8,1.2,2.6
				c0.5,0.8,1.2,1.4,2.1,1.9c0.8,0.5,1.9,0.7,3.1,0.7c1.6,0,2.9-0.5,3.9-1.5c0.9-1,1.5-2.3,1.7-4h5.2c-0.1,1.5-0.5,2.9-1.1,4.2
				c-0.6,1.2-1.3,2.3-2.3,3.2c-0.9,0.9-2,1.5-3.3,2s-2.6,0.7-4.2,0.7c-1.9,0-3.6-0.3-5.1-1s-2.8-1.6-3.8-2.7s-1.8-2.5-2.4-4
				c-0.5-1.5-0.8-3.2-0.8-5s0.3-3.5,0.8-5.1s1.3-2.9,2.4-4.1c1-1.2,2.3-2.1,3.8-2.7c1.5-0.7,3.2-1,5.1-1c1.4,0,2.6,0.2,3.8,0.6
				c1.2,0.4,2.3,1,3.2,1.7c0.9,0.7,1.7,1.7,2.4,2.8c0.6,1.1,1,2.4,1.2,3.8h-5.2C480.3,415.5,480.1,414.9,479.7,414.4z"/>
			<path class="st0" d="M510.3,407.9v24.5h-5.4v-24.5H510.3z"/>
			<path class="st0" d="M542.7,407.9l9.2,24.5h-5.6l-1.9-5.5h-9.2l-1.9,5.5h-5.4l9.3-24.5H542.7z M543,422.9l-3.1-9h-0.1l-3.2,9H543
				z"/>
		</g>
	</g>
	<path class="st0" d="M427,168.5L411.6,191l-128-164c-6.1-7.8-15.1-12.2-24.9-12.2H49.4h-1.6c-22,0-39.9,18-39.9,40.1
		c0,9.4,3.3,18.5,9,25.3l113.2,146.5h70.1l79,101.2c0,0,6.2,7.6,11.1,12.8c2.4,2.5,5.5,4.2,9.1,5.3l0,0c0,0,2.2,0.7,6,1.2
		c0.2,0,0.5,0.1,0.7,0.1s0.4,0.1,0.6,0.1c4.7,0.5,8.3,0.3,8.3,0.3h166.9c20.7,0,40-10.2,51.8-27.3l104.8-152.1H427V168.5z
		 M142.7,201.2L36.8,64.1c-1.5-1.8-3.3-4.9-3.3-9.3c0-8,6.5-14.5,14.4-14.5h0.6h0.8c4.4,0.4,8.8,3.8,11.1,7l120,153.8L142.7,201.2
		L142.7,201.2z M315.2,322.3h-2.7c-1.9,0-4.1-0.6-5.4-1.4c-2.4-1.5-5.2-5.6-5.2-5.6L87.2,40.4l171.4-0.1c1.9,0,3.7,0.9,4.8,2.4
		l132.9,170.2l-72.1,104.5C322.2,320.5,318.8,322.3,315.2,322.3z M512.9,306.1c-7,10.2-18.5,16.2-30.8,16.2h-18.6l0,0H352
		l88.4-128.2h149.7L512.9,306.1z"/>
</g>
</svg>
